<svg width="170" height="54" viewBox="0 0 170 54" fill="none" xmlns="http://www.w3.org/2000/svg">
<path fill-rule="evenodd" clip-rule="evenodd" d="M57.324 15.1923H58.4037C58.5896 15.2154 58.7782 15.1998 58.9577 15.1466C59.1373 15.0933 59.3038 15.0035 59.4468 14.8829C59.5899 14.7623 59.7063 14.6134 59.7888 14.4456C59.8712 14.2779 59.918 14.0949 59.9261 13.9082C59.9261 13.1653 59.3658 12.6854 58.4156 12.6854C58.2252 12.6589 58.0314 12.6707 57.8456 12.7201C57.6598 12.7695 57.4858 12.8556 57.334 12.9732C57.1821 13.0908 57.0553 13.2376 56.9613 13.4048C56.8672 13.5721 56.8076 13.7565 56.7862 13.9471H55.6007C55.6212 13.6011 55.7127 13.263 55.8698 12.9538C56.0268 12.6447 56.246 12.3711 56.5137 12.1501C56.7813 11.9291 57.0917 11.7654 57.4255 11.6693C57.7593 11.5731 58.1094 11.5465 58.4539 11.5912C60.0437 11.5912 61.1631 12.4791 61.1631 13.7573C61.1668 14.1855 61.0232 14.602 60.7562 14.9373C60.4893 15.2726 60.1151 15.5064 59.6962 15.5997V15.6946C60.1928 15.7166 60.6605 15.9338 60.997 16.2988C61.3336 16.6638 61.5116 17.1469 61.4921 17.6425C61.4553 17.9987 61.3477 18.3441 61.1754 18.6583C61.0031 18.9725 60.7697 19.2492 60.4888 19.4723C60.208 19.6953 59.8853 19.8602 59.5397 19.9572C59.1942 20.0542 58.8326 20.0814 58.4764 20.0373C58.1194 20.0858 57.7563 20.0622 57.4086 19.9677C57.061 19.8733 56.736 19.71 56.4529 19.4875C56.1699 19.2651 55.9347 18.9881 55.7612 18.673C55.5878 18.358 55.4798 18.0113 55.4435 17.6537H56.6474C56.7201 18.4243 57.4298 18.9213 58.4764 18.9213C59.523 18.9213 60.2063 18.363 60.2063 17.576C60.2063 16.7777 59.5627 16.2859 58.4381 16.2859H57.324V15.1923ZM62.8599 18.123C62.8599 17.0288 63.6779 16.3979 65.1263 16.3083L66.7768 16.2134V15.6887C66.7768 15.0466 66.3526 14.6841 65.5293 14.6841C64.858 14.6841 64.3941 14.93 64.2593 15.3597H63.0951C63.218 14.3156 64.2038 13.6459 65.5861 13.6459C67.1138 13.6459 67.9755 14.4046 67.9755 15.6887V19.8422H66.8165V18.9879H66.7213C66.5282 19.2943 66.257 19.5441 65.9354 19.7118C65.6139 19.8795 65.2535 19.959 64.891 19.9423C64.6352 19.9689 64.3767 19.9416 64.1321 19.8624C63.8875 19.7831 63.6622 19.6536 63.4708 19.4822C63.2795 19.3108 63.1262 19.1013 63.021 18.8672C62.9158 18.6331 62.8609 18.3796 62.8599 18.123ZM66.7768 17.6036V17.0954L65.2887 17.1903C64.4496 17.2463 64.069 17.5311 64.069 18.067C64.069 18.6141 64.5447 18.9325 65.1989 18.9325C65.3906 18.9518 65.5842 18.9325 65.7683 18.8757C65.9523 18.8189 66.1231 18.7257 66.2703 18.6017C66.4175 18.4778 66.5382 18.3255 66.6252 18.154C66.7123 17.9825 66.7638 17.7953 66.7768 17.6036ZM71.1669 19.8421V14.7731L73.9765 14.773V13.7632H69.9643V19.8421H71.1669ZM81.2646 16.8C81.2646 18.7314 80.2853 19.9423 78.7471 19.9423C78.3695 19.9681 77.9924 19.8856 77.6602 19.7047C77.3279 19.5238 77.0545 19.252 76.8719 18.9213H76.7767V21.8632H75.5741V13.7632H76.7318V14.7678H76.8217C77.0075 14.4255 77.2846 14.1411 77.6223 13.9461C77.9599 13.751 78.3451 13.6528 78.7352 13.6624C80.2853 13.6623 81.2646 14.868 81.2646 16.8ZM80.0277 16.8C80.0277 15.516 79.4184 14.7401 78.3996 14.7401C77.3873 14.7401 76.7543 15.5324 76.7543 16.8053C76.7543 18.0723 77.3873 18.8653 78.3943 18.8653C79.4184 18.8652 80.0277 18.0894 80.0277 16.8ZM82.8663 20.9865V22.0194C82.9786 22.0359 83.2641 22.0471 83.3645 22.0471C84.6068 22.0471 85.1829 21.5725 85.7036 20.0933L87.9753 13.7632H86.7L85.1776 18.5917H85.0825L83.5548 13.7632H82.2452L84.4508 19.8646L84.3609 20.1605C84.3143 20.4126 84.176 20.6386 83.9726 20.7951C83.7692 20.9517 83.515 21.0278 83.2587 21.0089C83.1276 21.0105 82.9964 21.003 82.8663 20.9865ZM88.9122 18.1171H90.1095C90.2271 18.653 90.7306 18.9325 91.435 18.9325C92.2358 18.9325 92.7274 18.5805 92.7274 18.0334C92.7274 17.4474 92.286 17.1679 91.435 17.1679H90.5231V16.2358H91.4191C92.1459 16.2358 92.516 15.957 92.516 15.4487C92.516 15.0025 92.1578 14.6617 91.4191 14.6617C90.7465 14.6617 90.2549 14.9465 90.1768 15.4263H89.0179C89.1046 14.8749 89.4047 14.3795 89.8537 14.0465C90.3028 13.7135 90.8649 13.5697 91.4191 13.6459C92.8675 13.6459 93.6961 14.2991 93.6961 15.3261C93.7028 15.6121 93.611 15.8918 93.4359 16.1183C93.2607 16.3448 93.013 16.5045 92.734 16.5707V16.6656C93.0661 16.7083 93.371 16.8712 93.5907 17.1234C93.8105 17.3755 93.9298 17.6993 93.926 18.0334C93.926 19.189 92.9402 19.9536 91.435 19.9536C90.1042 19.9535 89.0232 19.3451 88.9122 18.1171ZM95.6579 13.7632V19.8421L96.8499 19.8422L99.6634 15.6386H99.7532V19.8422H100.945V13.7632H99.7532L96.945 17.9444H96.8499V13.7632H95.6579ZM107.512 14.7731H105.593V19.8421H104.389V14.7731H102.47V13.7633H107.512V14.7731ZM112.989 19.5582C113.472 19.2368 113.826 18.7563 113.99 18.2008L112.831 18.2007C112.69 18.453 112.477 18.6578 112.219 18.789C111.961 18.9202 111.67 18.972 111.382 18.9377C111.158 18.9404 110.935 18.8962 110.729 18.808C110.523 18.7198 110.337 18.5895 110.184 18.4255C110.032 18.2615 109.915 18.0674 109.842 17.8557C109.769 17.644 109.741 17.4193 109.76 17.1962V17.129H114.062V16.7103C114.062 14.8014 113.038 13.6458 111.343 13.6458C110.94 13.6424 110.542 13.7253 110.174 13.889C109.806 14.0526 109.478 14.2931 109.212 14.5943C108.945 14.8954 108.747 15.2501 108.63 15.6345C108.513 16.0188 108.48 16.4237 108.533 16.8218C108.478 17.2186 108.511 17.6227 108.628 18.0058C108.745 18.389 108.945 18.7421 109.213 19.0406C109.48 19.3392 109.81 19.576 110.179 19.7347C110.548 19.8933 110.947 19.97 111.348 19.9595C111.925 20.0217 112.506 19.8797 112.989 19.5582ZM112.836 16.2417H109.76C109.757 16.0341 109.796 15.8281 109.874 15.6358C109.952 15.4435 110.068 15.2687 110.215 15.1219C110.362 14.9751 110.537 14.8592 110.73 14.7811C110.923 14.7029 111.129 14.6641 111.337 14.6669C111.542 14.6624 111.746 14.7006 111.935 14.7792C112.124 14.8578 112.295 14.9751 112.436 15.1234C112.577 15.2717 112.686 15.4478 112.755 15.6403C112.824 15.8329 112.851 16.0378 112.836 16.2417ZM119.088 13.7632H121.836C123.028 13.7632 123.727 14.3657 123.727 15.3089C123.729 15.6082 123.627 15.8991 123.44 16.1329C123.253 16.3666 122.99 16.5291 122.697 16.593V16.6879C123.053 16.7104 123.387 16.8683 123.629 17.1291C123.872 17.3899 124.005 17.7337 124 18.0894C124 19.15 123.201 19.8421 121.863 19.8421H119.088V13.7632ZM120.28 14.6841V16.2582H121.472C122.199 16.2582 122.547 15.9793 122.547 15.4652C122.547 14.9912 122.244 14.6841 121.606 14.6841L120.28 14.6841ZM120.28 17.1402V18.9213H121.706C122.417 18.9213 122.798 18.6082 122.798 18.0334C122.798 17.425 122.367 17.1402 121.556 17.1402L120.28 17.1402ZM104.649 36.4989C104.836 38.1614 106.455 39.2529 108.667 39.2529C110.787 39.2529 112.312 38.1613 112.312 36.6623C112.312 35.3611 111.392 34.582 109.214 34.048L107.036 33.5246C103.95 32.7811 102.518 31.3414 102.518 29.0053C102.518 26.1128 105.045 24.1261 108.633 24.1261C112.183 24.1261 114.618 26.1128 114.7 29.0053H112.161C112.009 27.3323 110.623 26.3225 108.597 26.3225C106.571 26.3225 105.185 27.3442 105.185 28.8313C105.185 30.0165 106.07 30.7139 108.236 31.2478L110.087 31.7013C113.535 32.5147 114.968 33.8964 114.968 36.3485C114.968 39.4849 112.464 41.4492 108.48 41.4492C104.754 41.4492 102.238 39.531 102.075 36.4988L104.649 36.4989ZM64.8534 36.6387H58.448L56.9097 41.1699H54.1967L60.2637 24.4056H63.0825L69.1496 41.1699H66.3903L64.8534 36.6387ZM59.1114 34.5478H64.1887L61.6857 27.194H61.6157L59.1114 34.5478ZM82.2525 35.0593C82.2525 38.8575 80.2147 41.2978 77.1395 41.2978C76.3605 41.3384 75.5858 41.1594 74.904 40.7812C74.2223 40.403 73.6611 39.841 73.2847 39.1594H73.2265V45.2133H70.7116V28.9474H73.1459V30.9803H73.1922C73.5859 30.302 74.1566 29.7428 74.8435 29.3623C75.5305 28.9818 76.308 28.7942 77.0933 28.8195C80.2027 28.8195 82.2525 31.2716 82.2525 35.0593ZM79.6676 35.0593C79.6676 32.5847 78.3857 30.9579 76.4299 30.9579C74.5084 30.9579 73.2159 32.619 73.2159 35.0593C73.2159 37.522 74.5084 39.1712 76.4299 39.1712C78.3857 39.1712 79.6676 37.5563 79.6676 35.0593ZM90.6243 41.2977C93.6994 41.2977 95.7372 38.8575 95.7372 35.0593C95.7372 31.2716 93.6875 28.8195 90.5779 28.8195C89.7926 28.7942 89.0152 28.9818 88.3282 29.3623C87.6413 29.7428 87.0706 30.3019 86.6768 30.9803H86.6306V28.9474H84.1964V45.2132H86.7112V39.1593H86.7694C87.1458 39.8409 87.707 40.403 88.3888 40.7812C89.0705 41.1594 89.8453 41.3384 90.6243 41.2977ZM89.9146 30.9579C91.8704 30.9579 93.1523 32.5847 93.1523 35.0593C93.1523 37.5562 91.8704 39.1712 89.9146 39.1712C87.9931 39.1712 86.7007 37.522 86.7007 35.0593C86.7007 32.619 87.9931 30.9579 89.9146 30.9579ZM120.395 28.9474V26.0549H117.868V28.9474H116.087V30.9341H117.869V37.9399C117.869 40.3103 118.836 41.2397 121.316 41.2397C121.785 41.2484 122.253 41.2095 122.713 41.1237V39.1488C122.439 39.1827 122.163 39.202 121.886 39.2068C120.862 39.2068 120.395 38.719 120.395 37.6723V30.9341H122.725V28.9474H120.395ZM124.074 35.0593C124.074 31.2136 126.345 28.7971 129.885 28.7971C133.437 28.7971 135.697 31.2136 135.697 35.0593C135.697 38.9155 133.449 41.3215 129.885 41.3215C126.322 41.3215 124.074 38.9155 124.074 35.0593ZM133.135 35.0593C133.135 32.4213 131.923 30.8643 129.885 30.8643C127.847 30.8643 126.637 32.4331 126.637 35.0593C126.637 37.7079 127.847 39.253 129.885 39.253C131.923 39.253 133.135 37.7079 133.135 35.0593ZM140.169 28.9474H137.771V41.1699H140.285V33.9202C140.244 33.5578 140.282 33.1907 140.396 32.8442C140.51 32.4977 140.698 32.18 140.947 31.9128C141.196 31.6457 141.5 31.4354 141.838 31.2965C142.176 31.1576 142.541 31.0934 142.906 31.1082C143.288 31.097 143.67 31.1482 144.036 31.2598V28.9131C143.753 28.8499 143.464 28.8185 143.174 28.8195C142.504 28.7939 141.844 28.9995 141.308 29.4017C140.771 29.8038 140.39 30.378 140.227 31.0277H140.169V28.9474ZM155.631 37.58C155.292 39.7988 153.127 41.3215 150.355 41.3215C146.791 41.3215 144.579 38.9392 144.579 35.1173C144.579 31.2835 146.803 28.7971 150.25 28.7971C153.639 28.7971 155.771 31.12 155.771 34.8259V35.6855H147.118V35.8371C147.078 36.2869 147.134 36.7401 147.283 37.1665C147.432 37.5928 147.671 37.9827 147.982 38.3101C148.294 38.6376 148.672 38.8951 149.091 39.0656C149.51 39.2361 149.961 39.3157 150.413 39.2991C151.008 39.3547 151.604 39.2174 152.114 38.9076C152.624 38.5979 153.02 38.1322 153.243 37.58L155.631 37.58ZM147.13 33.9321H153.255C153.277 33.5276 153.216 33.1229 153.074 32.7433C152.933 32.3636 152.714 32.0173 152.432 31.726C152.149 31.4347 151.81 31.2048 151.434 31.0506C151.059 30.8964 150.656 30.8213 150.25 30.83C149.84 30.8276 149.434 30.9061 149.055 31.061C148.676 31.2159 148.332 31.4441 148.042 31.7325C147.752 32.0209 147.522 32.3638 147.365 32.7413C147.208 33.1188 147.128 33.5235 147.13 33.9321ZM33.3465 15.973C34.5087 14.5764 35.0813 12.7812 34.9426 10.9688C33.167 11.1554 31.5268 12.005 30.3488 13.348C29.7729 14.0041 29.3318 14.7675 29.0507 15.5943C28.7697 16.4212 28.6542 17.2954 28.7109 18.167C29.599 18.1762 30.4776 17.9835 31.2806 17.6034C32.0836 17.2234 32.7899 16.6659 33.3465 15.973ZM37.2587 27.5708C37.2741 26.3742 37.5916 25.201 38.1817 24.1602C38.7718 23.1194 39.6152 22.245 40.6337 21.6183C39.9867 20.6934 39.1332 19.9322 38.1409 19.3952C37.1487 18.8582 36.045 18.5603 34.9176 18.525C33.4466 18.3704 32.003 18.9439 30.8232 19.4126C30.0742 19.7102 29.4315 19.9655 28.9557 19.9655C28.4143 19.9655 27.7532 19.6997 27.0124 19.4019C26.0438 19.0124 24.939 18.5682 23.7877 18.5919C22.4734 18.6344 21.1926 19.017 20.0699 19.7023C18.9473 20.3877 18.0211 21.3525 17.3817 22.5027C14.6119 27.3031 16.6779 34.358 19.3312 38.2383C20.6586 40.1384 22.2101 42.2608 24.2401 42.1856C25.161 42.1473 25.8144 41.872 26.4893 41.5877C27.2703 41.2587 28.0801 40.9175 29.3664 40.9175C30.5793 40.9175 31.3544 41.2481 32.0982 41.5652C32.8112 41.8693 33.4956 42.1611 34.5093 42.1377C36.641 42.1031 37.984 40.2292 39.2649 38.3111C40.2187 36.9573 40.9526 35.4609 41.4395 33.8776C40.2011 33.3533 39.1443 32.4757 38.4008 31.3541C37.6573 30.2326 37.2601 28.9168 37.2587 27.5708Z" fill="#575762"/>
<rect x="0.498046" y="0.499999" width="169" height="52.9999" rx="9.49999" stroke="#575762" stroke-width="0.999999"/>
</svg>
