<svg width="210" height="48" viewBox="0 0 210 48" fill="none" xmlns="http://www.w3.org/2000/svg">
<path d="M189.709 36.1813C189.709 33.511 191.885 31.4341 194.456 31.4341C197.127 31.4341 199.203 33.6099 199.203 36.1813C199.203 38.7528 197.028 40.9286 194.456 40.9286C191.885 40.9286 189.709 38.8517 189.709 36.1813Z" fill="#86BC25"/>
<path fill-rule="evenodd" clip-rule="evenodd" d="M84.0828 7.5H75.874V40.533H84.0828V7.5ZM47.0936 23.4232C47.0936 28.9616 45.709 33.1155 42.7419 36.0825C39.7749 39.0495 35.6211 40.5331 30.2804 40.5331H19.7969V7.599H30.8738C36.1156 7.599 40.0716 8.88471 42.8408 11.6539C45.709 14.3243 47.0936 18.2803 47.0936 23.4232ZM37.9947 23.7199C37.9947 20.6539 37.4013 18.4781 36.2145 16.9946C35.1265 15.61 33.2474 14.8188 30.8738 14.8188H28.5002V33.2144H30.4782C33.1485 33.2144 35.0276 32.4232 36.3134 30.8408C37.4013 29.2583 37.9947 26.8847 37.9947 23.7199ZM108.017 37.566C110.193 35.2913 111.182 32.1265 111.182 28.1704C111.182 25.599 110.786 23.4232 109.599 21.3463C108.61 19.4671 107.324 17.9836 105.445 16.9946C103.665 16.0056 101.588 15.5111 99.2146 15.5111C95.4563 15.5111 92.4893 16.599 90.3135 18.8737C88.1376 21.0495 87.1486 24.2144 87.1486 28.1704C87.1486 32.0276 88.2365 35.0935 90.4124 37.4671C92.5882 39.8408 95.4563 40.9287 99.1157 40.9287C102.874 40.9287 105.841 39.8408 108.017 37.566ZM96.4453 32.9177C95.9508 31.8298 95.6541 30.3463 95.6541 28.1704C95.6541 25.9946 95.9508 24.5111 96.4453 23.4232C97.0387 22.3353 98.0277 21.8408 99.2146 21.8408C100.599 21.8408 101.489 22.4342 101.984 23.4232C102.478 24.5111 102.775 25.9946 102.775 28.1704C102.775 30.1484 102.478 31.8298 101.984 32.9177C101.39 34.0056 100.599 34.5001 99.2146 34.5001C97.8299 34.5001 96.9398 34.0056 96.4453 32.9177ZM122.753 15.9066H114.544V40.4341H122.753V15.9066ZM114.544 7.5H122.753V13.0385H114.544V7.5ZM139.467 34.2032C140.555 34.2032 141.94 33.9065 143.423 33.412V39.6428C142.335 40.1373 141.247 40.434 140.258 40.6318C139.269 40.8296 138.082 40.9285 136.698 40.9285C133.929 40.9285 131.951 40.2362 130.665 38.7527C129.478 37.368 128.786 35.1922 128.786 32.3241V22.2362H125.918V15.9065H128.786V9.77463L137.093 8.39001V16.1043H142.434V22.3351H137.093V31.8296C137.291 33.5109 137.983 34.2032 139.467 34.2032ZM162.61 33.412C161.127 33.9065 159.742 34.2032 158.654 34.2032C157.171 34.2032 156.38 33.5109 156.281 31.8296V22.3351H161.621V16.1043H156.281V8.39001L147.973 9.67573V15.9065H145.105V22.2362H147.973V32.3241C147.973 35.1922 148.665 37.368 149.852 38.7527C151.138 40.2362 153.116 40.9285 155.885 40.9285C157.27 40.9285 158.456 40.8296 159.445 40.6318C160.434 40.434 161.522 40.1373 162.61 39.6428V33.412ZM184.764 18.3792C182.786 16.4012 180.017 15.5111 176.456 15.5111C172.698 15.5111 169.731 16.599 167.654 18.8737C165.577 21.1484 164.588 24.3133 164.588 28.4671C164.588 32.4232 165.676 35.588 167.852 37.7638C170.126 39.9397 173.192 41.0276 177.148 41.0276C179.126 41.0276 180.709 40.9287 182.093 40.632C183.379 40.3353 184.863 39.9397 186.05 39.2473L184.863 33.7089C183.973 34.1045 182.984 34.4012 182.192 34.599C181.006 34.8957 179.621 34.9946 178.236 34.9946C176.654 34.9946 175.368 34.599 174.478 33.9067C173.588 33.1155 173.093 32.0276 173.093 30.643H187.83V26.7858C187.731 23.1265 186.643 20.3572 184.764 18.3792ZM173.093 25.2034C173.192 23.9177 173.588 22.8298 174.181 22.2364C174.775 21.643 175.566 21.3463 176.654 21.3463C177.643 21.3463 178.632 21.643 179.225 22.3353C179.819 23.0276 180.115 23.9177 180.214 25.2034H173.093ZM61.4343 15.5111C64.9948 15.5111 67.6651 16.4012 69.742 18.3792C71.6211 20.3572 72.7091 23.1265 72.808 26.7858V30.5441H58.0717C58.0717 31.9287 58.5662 33.0166 59.4563 33.8078C60.3464 34.5001 61.6321 34.8957 63.2146 34.8957C64.5992 34.8957 65.9838 34.7968 67.1706 34.5001C67.9618 34.3023 68.9508 34.0056 69.8409 33.61L71.0277 39.2473C69.8409 39.9397 68.3574 40.3353 67.0717 40.632C65.6871 40.9287 64.1047 41.0276 62.1266 41.0276C58.1706 41.0276 55.1047 39.9397 52.8299 37.7638C50.6541 35.588 49.5662 32.4232 49.5662 28.4671C49.5662 24.3133 50.5552 21.1484 52.6321 18.8737C54.7091 16.599 57.6761 15.5111 61.4343 15.5111ZM59.0607 22.2364C58.4673 22.8298 58.0717 23.9177 57.9728 25.2034H65.0937C64.9948 23.9177 64.6981 23.0276 64.1047 22.3353C63.5113 21.643 62.6211 21.3463 61.5332 21.3463C60.4453 21.3463 59.6541 21.643 59.0607 22.2364Z" fill="#979797"/>
</svg>
