<svg width="265" height="117" viewBox="0 0 265 117" fill="none" xmlns="http://www.w3.org/2000/svg">
<g clip-path="url(#clip0_3892_2597)">
<rect width="265" height="117" fill="#88B3A6"/>
<g clip-path="url(#clip1_3892_2597)">
<rect width="265" height="116.884" fill="#9FCDC0"/>
<path d="M265 0H0V116.884H265V0Z" fill="#F1F6F9"/>
<path d="M211.369 116.884H106.291L105.842 0H210.92L211.369 116.884Z" fill="#DDECEF"/>
<path d="M106.29 116.884H53.2907L52.8418 0H105.841L106.29 116.884Z" fill="#B8DED3"/>
<path d="M35.1403 14.5515H17.543V32.1489H35.1403V14.5515Z" fill="#92BBB3"/>
<path d="M33.3703 30.3776C37.2513 26.4966 37.2513 20.2043 33.3703 16.3234C29.4894 12.4424 23.1971 12.4424 19.3162 16.3234C15.4352 20.2043 15.4352 26.4966 19.3162 30.3776C23.1971 34.2585 29.4894 34.2585 33.3703 30.3776Z" fill="#92BBB3"/>
<path d="M162.911 48.307H167.012C167.012 48.307 169.93 43.5756 175.214 48.307H177.659V34.7416L175.924 33.9009C175.924 33.9009 184.442 28.0001 184.206 22.9131C184.206 22.9131 185.151 26.8963 187.989 28.5524L188.068 33.8757C188.068 33.8757 191.616 32.6928 191.616 36.8728V49.8059L197.928 52.9636L198.48 65.3461L204.793 67.1376V77.3512L153.537 78.2255L154.63 47.5974L162.911 48.307Z" fill="#F1F6F9"/>
<path d="M138.619 77.2519L174.348 76.4633V74.7282C174.348 74.7282 183.655 71.3368 190.358 75.4377L201.637 75.5167L204.793 77.2519V88.1557L136.828 88.4516V77.0913L138.619 77.2519Z" fill="#C3DED9"/>
<path d="M136.191 85.1284L192.819 84.7341L194.081 81.1847C194.081 81.1847 200.942 78.3457 205.514 82.3684C205.45 82.7383 204.804 84.7761 204.804 84.7761L207.399 85.711L209.931 80.212C209.931 80.212 219.592 80.6551 213.086 85.711C212.139 86.6273 207.92 90.7282 207.958 98.8913C207.602 99.0881 201.057 103.032 194.507 97.5462C195.179 96.9939 197.464 94.8249 197.464 94.8249L193.56 94.4701L191.983 99.9119L136.191 100.193V85.1284Z" fill="#92BBB3"/>
<path d="M138.27 89.3822C136.577 87.9808 137.978 86.6382 138.504 86.2297C144.809 82.1851 141.02 79.4125 138.638 78.0918C138.103 77.7948 137.67 77.3414 137.399 76.7921C136.153 74.2507 136.343 71.869 136.343 71.869L136.227 56.808C136.227 56.808 145.508 53.5974 145.508 44.9543C145.508 34.5238 136.479 31.9942 136.479 31.9942L136.468 23.8798H130.506C130.506 23.8798 129.339 10.6045 116.613 10.6045C103.888 10.6045 102.835 23.8798 102.835 23.8798H96.8611V31.9942C96.8611 31.9942 87.832 34.5238 87.832 44.9543C87.832 53.594 97.1141 56.808 97.1141 56.808L96.9972 71.869C96.9972 71.869 97.1881 74.2507 95.9422 76.7921C95.6711 77.3414 95.2388 77.7948 94.703 78.0918C92.3213 79.4125 88.534 82.1851 94.8375 86.2297C95.3629 86.6382 96.7644 87.9808 95.0712 89.3822C93.3781 90.7837 85.9077 95.22 90.8098 98.7812C91.3024 99.273 93.8968 100.278 93.9321 106.121C93.9396 107.291 94.4104 108.432 95.294 109.199C96.8459 110.544 99.938 111.661 105.813 108.705C109.49 106.428 115.065 110.574 116.67 110.574C118.275 110.574 123.851 106.431 127.532 108.701C133.407 111.657 136.499 110.544 138.051 109.196C138.933 108.429 139.405 107.288 139.412 106.118C139.448 100.275 142.042 99.2696 142.535 98.7778C147.435 95.22 139.963 90.7828 138.27 89.3822Z" fill="#F1F6F9"/>
<path d="M133.364 89.9389C132.056 88.856 133.139 87.8186 133.545 87.5008C138.421 84.3743 135.49 82.2322 133.648 81.2116C133.235 80.982 132.901 80.6315 132.692 80.207C132.207 79.2051 131.929 78.1157 131.875 77.004C131.849 76.4575 131.697 75.9111 131.366 75.4781C128.844 72.1692 126.203 77.1234 116.671 77.1234C107.138 77.1234 104.498 72.1725 101.976 75.4807C101.645 75.9161 101.493 76.4601 101.467 77.0065C101.413 78.1182 101.135 79.2075 100.65 80.2095C100.441 80.6328 100.108 80.982 99.6946 81.2108C97.8544 82.2314 94.9271 84.3743 99.7989 87.5C100.205 87.8161 101.288 88.8535 99.9796 89.938C98.6715 91.0225 92.896 94.4492 96.6858 97.2016C97.0666 97.5824 99.0725 98.3592 99.0994 102.877C99.0963 103.325 99.1884 103.768 99.3696 104.178C99.5508 104.587 99.8169 104.954 100.15 105.253C101.35 106.295 103.739 107.157 108.281 104.872C111.124 103.112 115.432 106.316 116.673 106.316C117.917 106.316 122.222 103.113 125.062 104.872C129.602 107.157 131.994 106.296 133.194 105.253C133.527 104.954 133.793 104.587 133.974 104.178C134.155 103.768 134.247 103.325 134.244 102.877C134.271 98.3601 136.277 97.5807 136.658 97.2024C140.448 94.4508 134.673 91.0217 133.364 89.9389Z" fill="#DDECEF"/>
<path d="M166.281 62.7206V54.972C166.281 54.972 166.341 53.6706 165.272 52.0144V47.3999C165.272 47.3999 165.193 46.4339 164.425 46.4339L160.306 27.3502V23.2662C161.723 22.9299 159.623 21.7201 159.625 21.3645L159.271 19.2166L158.915 21.3645C158.915 21.7201 156.813 22.9299 158.236 23.2662V27.3477L154.116 46.4314C153.347 46.4314 153.268 47.3973 153.268 47.3973L153.209 53.1351C152.144 54.7921 152.263 54.9694 152.263 54.9694V62.7181L147.205 79.4899H151.731L153.533 78.2288L159.272 78.1229L161.411 78.1624L163.261 78.9905L170.871 78.7938L166.281 62.7206Z" fill="#C3DED9"/>
<path d="M166.281 62.7206V54.972C166.281 54.972 166.34 53.6706 165.272 52.0144V47.3999C165.272 47.3999 165.193 46.4339 164.424 46.4339L160.305 27.3502V23.2662C161.722 22.9299 159.622 21.7201 159.625 21.3645L159.27 19.2166L159.354 26.9929L160.671 46.8089L160.656 51.304L160.965 51.5562L165.037 52.2052C164.399 52.8778 164.281 54.8753 164.317 56.7904C163.548 53.1905 161.056 52.238 158.65 52.2507H158.624C158.556 52.2507 158.489 52.2507 158.422 52.2507C158.279 52.2507 158.139 52.2582 158.007 52.2666C158.007 52.2666 153.896 52.4146 153.882 55.9337L153.678 63.4596L152.905 64.3129L151.859 79.4016L153.532 78.2246L156.223 78.175L156.252 57.6916L157.583 59.5554L157.612 78.1498L159.269 78.1187L161.132 78.1532V56.0951L160.039 54.7643L162.346 54.7946L162.48 62.2919L163.825 59.8539L167.669 78.8753L170.874 78.7913L166.281 62.7206Z" fill="#92BBB3"/>
<path d="M159.628 47.1342C159.628 47.1342 158.43 45.2409 156.707 47.1342V50.5356L159.628 50.565V47.1342Z" fill="#92BBB3"/>
<path d="M117.817 25.2845C117.817 25.2845 121.642 25.5208 119.394 22.1689C119.394 21.6956 118.881 20.079 119.315 18.1857C119.492 18.0874 120.735 15.7217 116.515 14.4791C116.263 14.4791 111.093 14.4791 111.546 17.5745C111.349 17.6931 109.733 19.4484 111.842 21.4594C111.842 21.7746 112.178 26.142 109.488 27.2063C106.798 28.2707 105.877 30.4329 105.582 34.2749C105.287 38.1168 103.127 85.0274 103.127 85.0274C103.127 85.0274 102.95 87.3342 107.622 88.1035C106.759 88.1631 102.242 88.776 102.242 88.776V91.1821L98.9297 91.3788V96.3077L99.028 98.4305L132.39 97.0509L133.681 95.4704L133.563 92.6903L129.965 91.694L129.925 89.2098L123.182 87.9084L123.518 83.768L125.312 83.9059L124.563 73.0416C124.563 73.0416 126.18 72.3321 126.298 70.7154C126.18 69.7688 123.952 44.5111 128.625 42.2043C129.177 42.2833 130.675 42.2438 130.675 42.2438L127.678 37.8268L127.738 33.9823L125.131 29.3089L122.292 34.0412C122.292 34.0412 120.281 29.9008 118.329 28.7179C118.211 27.8865 117.817 25.2845 117.817 25.2845Z" fill="#C3DED9"/>
<path d="M111.481 24.8004C111.751 26.8071 118.291 28.4481 118.291 28.4481C118.143 27.4393 117.818 25.2846 117.818 25.2846C118.071 25.2934 118.324 25.2802 118.574 25.2451C114.99 22.9643 115.512 14.7877 115.512 14.7877C115.512 14.7877 115.554 14.7222 115.475 14.5355C113.919 14.6953 111.216 15.2921 111.549 17.5721C111.352 17.6906 109.735 19.446 111.845 21.4569C111.845 21.6452 111.96 23.2779 111.482 24.7903C111.481 24.7953 111.481 24.8004 111.481 24.8004Z" fill="#92BBB3"/>
<path d="M102.588 98.2809L104.192 98.2145L124.873 93.2132V90.8173L120.669 90.9165V88.0581H122.49C119.138 87.3856 119.413 84.1144 119.413 84.1144L122.213 84.3515V50.0976L124.017 50.3708L123.475 77.7454L125.821 51.6915C125.895 50.5373 125.998 49.4292 126.137 48.4002V48.3582C114.761 46.8113 110.427 30.491 109.856 28.1236C121.739 28.7306 118.165 40.3926 118.165 40.3926L119.133 41.4855C122.244 27.6444 110.179 27.5107 110.179 27.5107L109.489 28.0101L109.445 28.0429L109.368 28.0975H109.376C107.854 29.2745 106.672 32.3758 106.672 32.3758C106.449 30.1471 108.065 28.1068 108.257 27.8731C106.509 29.082 105.819 31.0954 105.578 34.2749C105.308 37.7747 103.497 76.9391 103.173 83.9513C103.196 84.6239 103.213 85.1182 103.222 85.3763L103.17 85.4074C103.344 86.0951 104.126 87.5285 107.619 88.1035C106.755 88.1632 102.238 88.7761 102.238 88.7761V91.1821L98.9258 91.3788V96.3078L98.9737 97.3393L102.588 98.2809ZM116.459 88.0144L115.799 88.0228C115.738 87.4982 115.596 87.2998 114.286 86.9526C112.941 86.5979 112.352 84.1136 112.352 84.1136H113.102C113.377 85.6521 114.6 86.4011 114.876 86.7197C116.529 86.6802 116.484 87.8076 116.462 88.0144H116.459ZM119.257 49.6512L121.314 83.1485C121.039 82.9846 120.781 82.8122 120.674 82.6853C120.492 82.4717 119.393 82.5617 118.581 82.7029L118.012 49.4629L119.257 49.6512ZM114.108 66.0917L114.936 48.9971L117.67 49.4107L114.876 82.8921L114.907 82.9064C114.157 82.6954 113.303 82.6542 112.456 82.713L112.277 61.895L114.108 66.0917ZM106.23 84.9585H106.236C106.236 84.9585 106.832 70.766 106.657 69.5831C105.828 66.507 108.254 48.2884 108.254 48.2884C108.254 48.2884 108.373 47.6377 108.905 50.5953C109.437 53.5528 109.023 60.296 108.727 63.0173C107.19 69.7008 108.147 84.0152 108.147 84.0152L108.175 84.903C107.693 84.8492 106.976 84.887 106.232 84.9585H106.23Z" fill="#92BBB3"/>
<path d="M124.875 88.2339V90.8173L129.962 91.6916L129.923 89.2074L124.875 88.2339Z" fill="#92BBB3"/>
<path d="M124.599 45.409L126.566 45.9975L126.575 45.9816C127.03 44.0581 127.686 42.665 128.622 42.2035C129.002 42.2581 129.825 42.2556 130.303 42.2489L128.364 39.5343L121.621 39.9488C123.455 40.243 124.599 45.409 124.599 45.409Z" fill="#92BBB3"/>
<path d="M122.213 34.8601H126.577L127.682 37.3931L127.727 34.4574L122.213 34.4457V34.8601Z" fill="#92BBB3"/>
<path d="M103.483 100.932C102.945 101.03 101.256 101.314 99.6221 101.314C99.2366 101.316 98.8513 101.296 98.4678 101.257L98.3585 101.244L94.5645 95.5866L95.2673 95.8598C95.2782 95.8598 96.3518 96.2802 97.9751 96.2802C99.9188 96.2802 101.792 95.7186 103.543 94.6131L103.767 94.4719L104.995 96.9889C106.467 96.3458 115.363 92.635 124.415 92.635C126.434 92.6222 128.449 92.8288 130.424 93.2512L130.67 93.3058L130.601 93.5479C130.51 93.8632 130.295 94.6963 130.259 95.2016C131.184 95.3279 132.117 95.3919 133.05 95.3933C134.091 95.4048 135.13 95.3016 136.148 95.0856L136.527 95.0015L136.428 95.3781C135.949 97.2277 135.504 99.3168 135.595 99.6177L135.661 99.8397L135.444 99.9237C134.016 100.346 132.536 100.566 131.047 100.579C129.671 100.579 128.466 100.355 127.467 99.9145L127.292 99.8372L127.605 98.3819C126.605 98.2427 125.596 98.1778 124.586 98.1877C120.444 98.1877 113.671 99.0486 104.913 103.148L104.711 103.244L103.483 100.932Z" fill="#F1F6F9"/>
<path d="M124.416 92.8686C126.419 92.8554 128.417 93.0603 130.375 93.4798C130.375 93.4798 129.991 94.8106 130.02 95.4016C131.024 95.5529 132.038 95.6282 133.053 95.6269C134.111 95.6377 135.167 95.5325 136.202 95.3134C136.202 95.3134 135.193 99.1873 135.374 99.6908C133.969 100.103 132.514 100.32 131.049 100.335C129.893 100.335 128.66 100.173 127.566 99.6908L127.891 98.1776C127.891 98.1776 126.729 97.9405 124.59 97.9405C120.771 97.9405 113.839 98.6971 104.819 102.925L103.61 100.664C103.61 100.664 101.556 101.075 99.6219 101.075C99.2451 101.076 98.8685 101.058 98.4937 101.019L95.1814 96.0801C95.1814 96.0801 96.281 96.5113 97.975 96.5113C99.5101 96.5113 101.533 96.1574 103.669 94.8081L104.882 97.2923C104.882 97.2923 114.493 92.8661 124.417 92.8661L124.416 92.8686ZM124.417 92.3928C115.674 92.3928 107.087 95.8312 105.108 96.6803L104.094 94.6038L103.863 94.1288L103.417 94.4113C101.703 95.4933 99.8733 96.0414 97.975 96.0414C96.4029 96.0414 95.363 95.6463 95.3529 95.6421L93.9531 95.0998L94.7879 96.3466L98.1003 101.286L98.223 101.469L98.4416 101.492C98.8325 101.533 99.2254 101.553 99.6185 101.551C101.124 101.551 102.677 101.313 103.353 101.196L104.399 103.152L104.611 103.548L105.017 103.357C113.732 99.2739 120.469 98.4172 124.586 98.4172C125.5 98.4112 126.413 98.4634 127.32 98.5736L127.101 99.5916L127.017 99.9683L127.37 100.124C128.399 100.579 129.635 100.809 131.044 100.809C132.558 100.796 134.062 100.571 135.514 100.142L135.977 99.9935L135.815 99.5336C135.768 99.2057 136.212 97.1402 136.656 95.4327L136.851 94.6761L136.094 94.8443C135.094 95.057 134.073 95.1585 133.05 95.1469C132.204 95.1453 131.358 95.0919 130.518 94.9872C130.593 94.52 130.696 94.0578 130.827 93.6034L130.967 93.1192L130.475 93.0099C128.483 92.5838 126.451 92.3752 124.414 92.3877L124.417 92.3928Z" fill="#DDECEF"/>
<path d="M236.291 107.34C247.573 107.34 256.719 103.35 256.719 98.428C256.719 93.506 247.573 89.5159 236.291 89.5159C225.009 89.5159 215.863 93.506 215.863 98.428C215.863 103.35 225.009 107.34 236.291 107.34Z" fill="#C3DED9"/>
<path d="M256.72 104.737H169.963V109.913H256.72V104.737Z" fill="#92BBB3"/>
<path d="M256.721 7.18213H177.221V11.9144H256.721V7.18213Z" fill="#92BBB3"/>
<path d="M256.72 16.6465H222.844V21.3787H256.72V16.6465Z" fill="#92BBB3"/>
<path d="M213.441 43.3039H197.667C196.799 43.3039 195.967 42.9591 195.353 42.3453C194.739 41.7316 194.395 40.8991 194.395 40.0311V16.6456H216.715V40.0311C216.715 40.461 216.63 40.8866 216.466 41.2838C216.301 41.6809 216.06 42.0417 215.756 42.3456C215.452 42.6496 215.091 42.8906 214.694 43.055C214.297 43.2195 213.871 43.304 213.441 43.3039Z" fill="#B9C5C1"/>
<path d="M44.5656 82.4675H8.11914V109.914H44.5656V82.4675Z" fill="#C3DED9"/>
<path d="M41.6034 104.635H33.9531V107.001H41.6034V104.635Z" fill="#92BBB3"/>
<path d="M41.6034 99.5874H33.9531V101.953H41.6034V99.5874Z" fill="#92BBB3"/>
<path d="M41.6034 94.5399H33.9531V96.9056H41.6034V94.5399Z" fill="#92BBB3"/>
<path d="M39.463 90.6844C39.4638 91.018 39.3656 91.3443 39.1809 91.622C38.9962 91.8998 38.7333 92.1165 38.4253 92.2447C38.1174 92.3729 37.7784 92.4069 37.4511 92.3423C37.1239 92.2778 36.8231 92.1176 36.587 91.882C36.3508 91.6465 36.1899 91.3461 36.1245 91.019C36.0591 90.692 36.0922 90.3528 36.2197 90.0446C36.3472 89.7363 36.5632 89.4728 36.8405 89.2874C37.1178 89.102 37.4438 89.0031 37.7774 89.0031C37.9985 89.0025 38.2176 89.0456 38.4221 89.1298C38.6266 89.2141 38.8124 89.3379 38.969 89.494C39.1256 89.6502 39.2498 89.8358 39.3346 90.04C39.4193 90.2443 39.463 90.4633 39.463 90.6844Z" fill="#92BBB3"/>
<path d="M50.054 32.7584V20.2464C49.7746 20.3347 49.4895 20.4041 49.2007 20.4541L47.9498 20.6718L47.4336 15.6033L48.4735 15.3847C48.7257 15.3309 49.1747 15.151 49.8531 14.5961C50.3878 14.1581 50.7409 13.7319 50.9014 13.3351L51.1982 12.5852H55.6757V32.7618L50.054 32.7584Z" fill="white"/>
<path d="M54.4931 13.7689V31.5756H51.2363V18.3767C50.5625 18.8354 49.7997 19.1473 48.9975 19.2922L48.7176 16.544C49.278 16.4252 49.9058 16.0819 50.6007 15.5142C51.2957 14.9464 51.762 14.3658 51.9996 13.7723H54.4931V13.7689ZM56.8588 11.4057H50.3981L49.8029 12.8929C49.7727 12.9686 49.6348 13.2493 49.1026 13.6831C48.5141 14.1649 48.2308 14.2287 48.2283 14.2296L46.1484 14.6693L46.3637 16.7836L46.6436 19.5318L46.9009 22.0589L48.8706 21.7159V33.9413H56.8572V11.4023L56.8588 11.4057Z" fill="#92BBB3"/>
<path d="M63.5228 33.1141C61.7935 33.1141 60.2441 32.65 58.92 31.7345C57.6144 30.8307 56.5913 29.5487 55.8775 27.9312C55.1865 26.3616 54.8359 24.5415 54.8359 22.5197C54.8359 20.5768 55.1882 18.8156 55.8834 17.2855C56.5997 15.7067 57.6304 14.4574 58.9461 13.5747C60.2744 12.6819 61.8145 12.2296 63.5228 12.2296C65.2496 12.2296 66.8015 12.6878 68.1306 13.5915C69.4446 14.4843 70.4694 15.7319 71.1773 17.3015C71.8633 18.8248 72.2105 20.5802 72.2105 22.5197C72.2105 24.5373 71.865 26.3557 71.1848 27.9245C70.477 29.5504 69.4513 30.8324 68.1357 31.7362C66.8023 32.6508 65.2513 33.1141 63.5228 33.1141ZM63.5228 17.4696C62.6317 17.4696 61.9541 17.8227 61.3975 18.5794C60.7737 19.4268 60.4576 20.7525 60.4576 22.5205C60.4576 24.4289 60.7729 25.8362 61.3933 26.7021C61.9415 27.4671 62.6182 27.8236 63.5228 27.8236C64.4274 27.8236 65.1075 27.4697 65.6548 26.7114C66.2744 25.8538 66.588 24.4415 66.588 22.5205C66.588 20.7551 66.2719 19.4268 65.6481 18.5785C65.0915 17.8227 64.4164 17.4696 63.5228 17.4696Z" fill="white"/>
<path d="M63.5229 13.4123C65.0154 13.4123 66.33 13.7982 67.4666 14.5699C68.6032 15.3417 69.4809 16.4144 70.0996 17.7881C70.7161 19.1607 71.0244 20.7378 71.0244 22.5195C71.0244 24.3847 70.7161 26.0297 70.0996 27.4544C69.4831 28.8791 68.6054 29.9815 67.4666 30.7616C66.3294 31.5407 65.0148 31.9305 63.5229 31.931C62.0309 31.9316 60.7209 31.5418 59.5927 30.7616C58.4656 29.982 57.5882 28.8796 56.9605 27.4544C56.3327 26.0291 56.0189 24.3842 56.0189 22.5195C56.0189 20.7384 56.3327 19.157 56.9605 17.7755C57.5882 16.394 58.4698 15.3212 59.6053 14.5573C60.7408 13.794 62.0466 13.4123 63.5229 13.4123ZM63.5229 29.0054C64.812 29.0054 65.8424 28.4713 66.6141 27.4031C67.3859 26.3348 67.7715 24.707 67.7709 22.5195C67.7709 20.4834 67.3811 18.9359 66.6015 17.8772C65.8219 16.8185 64.7957 16.2883 63.5229 16.2866C62.2518 16.2866 61.2258 16.8168 60.4451 17.8772C59.6644 18.9376 59.2743 20.485 59.2749 22.5195C59.2749 24.6902 59.6608 26.3138 60.4325 27.3905C61.2043 28.4671 62.2344 29.0049 63.5229 29.0038V29.0054ZM63.5229 11.0449C61.5759 11.0449 59.8138 11.5653 58.2862 12.591C56.7856 13.5998 55.6145 15.013 54.8058 16.7944C54.0407 18.4758 53.6523 20.4035 53.6523 22.5161C53.6523 24.7019 54.0374 26.6835 54.7957 28.4052C55.5977 30.2278 56.7587 31.6738 58.2467 32.7036C59.7734 33.7629 61.5481 34.3001 63.5229 34.3001C65.4977 34.3001 67.2715 33.7671 68.8041 32.7154C70.3073 31.6822 71.4716 30.2312 72.2686 28.401C73.016 26.6792 73.3934 24.7019 73.3934 22.522C73.3934 20.4136 73.0109 18.4951 72.2568 16.8196C71.459 15.0483 70.293 13.63 68.7957 12.6103C67.2648 11.5737 65.4901 11.0466 63.5229 11.0466V11.0449ZM63.5229 26.6381C62.9991 26.6381 62.6822 26.4699 62.3552 26.0109C62.0887 25.6385 61.6414 24.6893 61.6414 22.5178C61.6414 20.6364 62.0265 19.7175 62.3501 19.2778C62.7343 18.7557 63.0841 18.6507 63.5271 18.6507C63.9701 18.6507 64.3157 18.7557 64.6999 19.2778C65.0235 19.7175 65.4094 20.6364 65.4094 22.5178C65.4094 24.7036 64.9647 25.6494 64.6999 26.0168C64.3728 26.4691 64.0551 26.6381 63.5271 26.6381H63.5229Z" fill="#92BBB3"/>
<path d="M79.5998 33.1141C77.8705 33.1141 76.3211 32.65 74.997 31.7345C73.6914 30.8316 72.6683 29.5487 71.9546 27.9312C71.2635 26.3616 70.9121 24.5415 70.9121 22.5197C70.9121 20.5768 71.2652 18.8156 71.9596 17.2855C72.6767 15.7067 73.7074 14.4574 75.0231 13.5747C76.3514 12.6819 77.8907 12.2296 79.5998 12.2296C81.3266 12.2296 82.8785 12.6878 84.2068 13.5915C85.5208 14.4835 86.5456 15.7319 87.2543 17.3015C87.9395 18.8248 88.2875 20.5802 88.2875 22.5197C88.2875 24.5373 87.942 26.3557 87.261 27.9253C86.5532 29.5512 85.5275 30.8324 84.2127 31.7362C82.8793 32.6508 81.3274 33.1141 79.5998 33.1141ZM79.5998 17.4696C78.7062 17.4696 78.0311 17.8219 77.4737 18.5785C76.8507 19.4259 76.5346 20.7517 76.5346 22.5197C76.5346 24.428 76.8491 25.8354 77.4703 26.7013C78.0168 27.4663 78.6952 27.8269 79.5998 27.8269C80.5044 27.8269 81.1837 27.473 81.7318 26.7147C82.3505 25.8572 82.665 24.4449 82.665 22.5239C82.665 20.7584 82.3489 19.4301 81.7251 18.5819C81.1685 17.8227 80.4935 17.4696 79.5998 17.4696Z" fill="white"/>
<path d="M79.5991 13.4123C81.0905 13.4123 82.4047 13.7982 83.5419 14.5699C84.6791 15.3417 85.5568 16.4144 86.175 17.7881C86.7915 19.1607 87.0997 20.7378 87.0997 22.5195C87.0997 24.3847 86.7915 26.0297 86.175 27.4544C85.5584 28.8791 84.6808 29.9815 83.5419 30.7616C82.4053 31.5407 81.091 31.9305 79.5991 31.931C78.1071 31.9316 76.797 31.5418 75.6688 30.7616C74.5434 29.982 73.666 28.8796 73.0366 27.4544C72.4072 26.0291 72.0931 24.3842 72.0942 22.5195C72.0942 20.7384 72.4084 19.157 73.0366 17.7755C73.6649 16.394 74.5465 15.3212 75.6814 14.5573C76.8169 13.794 78.1228 13.4123 79.5991 13.4123ZM79.5991 29.0054C80.8881 29.0054 81.9185 28.4713 82.6903 27.4031C83.462 26.3348 83.8476 24.707 83.8471 22.5195C83.8471 20.4834 83.4573 18.9359 82.6777 17.8772C81.8981 16.8185 80.8719 16.2883 79.5991 16.2866C78.3268 16.2866 77.3006 16.8168 76.5205 17.8772C75.7403 18.9376 75.3505 20.485 75.3511 22.5195C75.3511 24.6902 75.7367 26.3138 76.5078 27.3905C77.279 28.4671 78.3094 29.0049 79.5991 29.0038V29.0054ZM79.5991 11.0449C77.6512 11.0449 75.8891 11.5653 74.3616 12.591C72.8618 13.5998 71.6907 15.013 70.8819 16.7944C70.1169 18.4758 69.7285 20.4035 69.7285 22.5161C69.7285 24.7019 70.1127 26.6835 70.871 28.4052C71.6739 30.2278 72.8349 31.6738 74.3178 32.7036C75.8496 33.7629 77.6243 34.3001 79.5991 34.3001C81.5739 34.3001 83.3469 33.7671 84.8803 32.7154C86.3826 31.6822 87.5478 30.2312 88.3448 28.401C89.0913 26.6792 89.4696 24.7019 89.4696 22.522C89.4696 20.4136 89.0871 18.4951 88.333 16.8196C87.5327 15.0466 86.3683 13.6326 84.8719 12.6162C83.341 11.5762 81.5671 11.05 79.5991 11.05V11.0449ZM79.5991 26.6381C79.0753 26.6381 78.7584 26.4699 78.4313 26.0109C78.1648 25.6385 77.7168 24.6893 77.7168 22.5178C77.7168 20.6364 78.1026 19.7175 78.4263 19.2778C78.8105 18.7557 79.1602 18.6507 79.6033 18.6507C80.0463 18.6507 80.3918 18.7557 80.776 19.2778C81.0997 19.7175 81.4856 20.6364 81.4856 22.5178C81.4856 24.7036 81.0409 25.6494 80.7752 26.0168C80.449 26.4691 80.1312 26.6381 79.6033 26.6381H79.5991Z" fill="#92BBB3"/>
<path d="M95.7346 33.1141C94.0044 33.1141 92.4559 32.65 91.1309 31.7345C89.8262 30.8316 88.8022 29.5487 88.0885 27.9312C87.3974 26.3616 87.0469 24.5415 87.0469 22.5197C87.0469 20.5768 87.3991 18.8156 88.0944 17.2855C88.8106 15.7067 89.8413 14.4583 91.157 13.5747C92.4853 12.6819 94.0254 12.2296 95.7346 12.2296C97.4613 12.2296 99.0133 12.6878 100.342 13.5915C101.656 14.4835 102.68 15.7319 103.388 17.3015C104.074 18.8248 104.421 20.5802 104.421 22.5197C104.421 24.5373 104.077 26.3557 103.396 27.9253C102.688 29.5512 101.662 30.8324 100.347 31.7362C99.0141 32.6508 97.4622 33.1141 95.7346 33.1141ZM95.7346 17.4696C94.8409 17.4696 94.165 17.8219 93.6085 18.5785C92.9855 19.4259 92.6694 20.7517 92.6694 22.5197C92.6694 24.428 92.9838 25.8354 93.6051 26.7013C94.1566 27.4663 94.8291 27.8269 95.7346 27.8269C96.64 27.8269 97.3176 27.473 97.8666 26.7147C98.4853 25.8564 98.7997 24.4449 98.7997 22.5239C98.7997 20.7584 98.4836 19.4301 97.8598 18.5819C97.3033 17.8227 96.6274 17.4696 95.7346 17.4696Z" fill="white"/>
<path d="M95.7347 13.4124C97.2261 13.4124 98.5403 13.7983 99.6775 14.57C100.815 15.3418 101.693 16.4145 102.311 17.7882C102.928 19.1608 103.236 20.7379 103.236 22.5196C103.236 24.3848 102.928 26.0298 102.311 27.4545C101.695 28.8792 100.817 29.9816 99.6784 30.7617C98.5417 31.5408 97.2275 31.9306 95.7355 31.9312C94.2436 31.9317 92.9327 31.5419 91.8028 30.7617C90.6746 29.9805 89.7969 28.878 89.1697 27.4545C88.5426 26.0309 88.2287 24.386 88.2281 22.5196C88.2281 20.7385 88.542 19.1571 89.1697 17.7756C89.7974 16.3941 90.6793 15.3213 91.8154 14.5574C92.9509 13.7941 94.2567 13.4124 95.733 13.4124H95.7347ZM95.733 29.0055C97.0221 29.0055 98.0522 28.4714 98.8234 27.4032C99.5946 26.335 99.9804 24.7071 99.981 22.5196C99.981 20.4835 99.5909 18.936 98.8108 17.8773C98.0306 16.8186 97.0047 16.2884 95.733 16.2867C94.4613 16.2867 93.4351 16.8169 92.6544 17.8773C91.8737 18.9377 91.4836 20.4851 91.4841 22.5196C91.4841 24.6903 91.87 26.3139 92.6418 27.3906C93.4135 28.4672 94.4445 29.005 95.7347 29.0039L95.733 29.0055ZM95.7347 11.045C93.7868 11.045 92.0247 11.5654 90.4972 12.5911C88.9965 13.5999 87.8255 15.0131 87.0167 16.7945C86.2517 18.4759 85.8633 20.4036 85.8633 22.5163C85.8633 24.702 86.2483 26.6836 87.0066 28.4053C87.8086 30.2279 88.9705 31.6739 90.4535 32.7037C91.9801 33.7597 93.7557 34.2943 95.7305 34.2943C97.7052 34.2943 99.4783 33.7613 101.012 32.7096C102.514 31.6764 103.678 30.2254 104.475 28.3952C105.223 26.6735 105.601 24.6962 105.601 22.5163C105.601 20.4078 105.219 18.4893 104.464 16.8138C103.664 15.0408 102.5 13.6268 101.003 12.6104C99.4724 11.5713 97.6985 11.0442 95.7305 11.0442L95.7347 11.045ZM95.7347 26.6382C95.2109 26.6382 94.894 26.47 94.5661 26.011C94.2996 25.6386 93.8524 24.6894 93.8524 22.5179C93.8524 20.6365 94.2382 19.7176 94.5619 19.2779C94.9461 18.7558 95.295 18.6508 95.7389 18.6508C96.1828 18.6508 96.5266 18.7558 96.9158 19.2779C97.2387 19.7176 97.6245 20.6365 97.6245 22.5179C97.6245 24.7037 97.1798 25.6495 96.915 26.0169C96.588 26.4692 96.2702 26.6382 95.7431 26.6382H95.7347Z" fill="#92BBB3"/>
<path d="M51.2375 18.3733C50.5636 18.832 49.8009 19.1439 48.9987 19.2888L48.7188 16.5406C49.2792 16.4217 49.9069 16.0785 50.6019 15.5107C51.2969 14.943 51.7632 14.3623 52.0008 13.7688H54.4943V31.5755H51.2375V18.3733Z" fill="white"/>
<path d="M59.5933 30.7617C58.4662 29.9821 57.5888 28.8797 56.9611 27.4544C56.3334 26.0292 56.0195 24.3842 56.0195 22.5196C56.0195 20.7384 56.3334 19.1571 56.9611 17.7755C57.5888 16.394 58.4704 15.3213 59.6059 14.5574C60.7414 13.794 62.0473 13.4124 63.5235 13.4124C65.016 13.4124 66.3306 13.7982 67.4672 14.57C68.6038 15.3417 69.4815 16.4145 70.1003 17.7881C70.7168 19.1607 71.025 20.7379 71.025 22.5196C71.025 24.3848 70.7168 26.0297 70.1003 27.4544C69.4838 28.8791 68.6061 29.9815 67.4672 30.7617C66.33 31.5407 65.0155 31.9305 63.5235 31.9311C62.0316 31.9317 60.7215 31.5418 59.5933 30.7617ZM66.6148 27.3989C67.3854 26.3312 67.771 24.7034 67.7715 22.5154C67.7715 20.4792 67.3817 18.9318 66.6021 17.8731C65.8225 16.8143 64.7963 16.2856 63.5235 16.2867C62.2524 16.2867 61.2265 16.8169 60.4458 17.8773C59.665 18.9377 59.275 20.4851 59.2755 22.5196C59.2755 24.6902 59.6614 26.3139 60.4332 27.3905C61.2049 28.4672 62.235 29.0049 63.5235 29.0038C64.812 29.0038 65.8424 28.4714 66.6148 27.4065V27.3989Z" fill="white"/>
<path d="M75.6684 30.7617C74.543 29.9821 73.6656 28.8797 73.0362 27.4544C72.4068 26.0292 72.0926 24.3842 72.0938 22.5196C72.0938 20.7384 72.4079 19.1571 73.0362 17.7755C73.6644 16.394 74.546 15.3213 75.681 14.5574C76.8165 13.794 78.1223 13.4124 79.5986 13.4124C81.09 13.4124 82.4043 13.7982 83.5414 14.57C84.6786 15.3417 85.5563 16.4145 86.1745 17.7881C86.791 19.1607 87.0992 20.7379 87.0992 22.5196C87.0992 24.3848 86.791 26.0297 86.1745 27.4544C85.558 28.8791 84.6803 29.9815 83.5414 30.7617C82.4048 31.5407 81.0905 31.9305 79.5986 31.9311C78.1067 31.9317 76.7966 31.5418 75.6684 30.7617ZM82.6898 27.3989C83.4604 26.3312 83.846 24.7034 83.8466 22.5154C83.8466 20.4792 83.4568 18.9318 82.6772 17.8731C81.8976 16.8143 80.8714 16.2842 79.5986 16.2825C78.3264 16.2825 77.3002 16.8127 76.52 17.8731C75.7398 18.9335 75.35 20.4823 75.3506 22.5196C75.3506 24.6902 75.7362 26.3139 76.5074 27.3905C77.2786 28.4672 78.309 29.0049 79.5986 29.0038C80.8865 29.0038 81.9169 28.4714 82.6898 27.4065V27.3989Z" fill="white"/>
<path d="M91.8031 30.7617C90.6749 29.9804 89.7973 28.878 89.1701 27.4544C88.5429 26.0308 88.2291 24.3859 88.2285 22.5196C88.2285 20.7384 88.5424 19.1571 89.1701 17.7755C89.7978 16.394 90.6797 15.3213 91.8157 14.5574C92.9512 13.794 94.2571 13.4124 95.7334 13.4124C97.2247 13.4124 98.539 13.7982 99.6762 14.57C100.813 15.3417 101.692 16.4145 102.312 17.7881C102.928 19.1607 103.237 20.7379 103.237 22.5196C103.237 24.3848 102.928 26.0297 102.312 27.4544C101.695 28.8791 100.818 29.9815 99.6787 30.7617C98.5421 31.5407 97.2278 31.9305 95.7359 31.9311C94.2439 31.9317 92.933 31.5418 91.8031 30.7617ZM98.8237 27.3989C99.5949 26.3312 99.9808 24.7034 99.9814 22.5154C99.9814 20.4792 99.5913 18.9318 98.8111 17.8731C98.031 16.8143 97.005 16.2842 95.7334 16.2825C94.4617 16.2825 93.4355 16.8127 92.6548 17.8731C91.874 18.9335 91.4839 20.4809 91.4845 22.5154C91.4845 24.686 91.8704 26.3097 92.6421 27.3863C93.4139 28.463 94.4449 29.0021 95.735 29.0038C97.023 29.0038 98.0531 28.4714 98.8254 27.4065L98.8237 27.3989Z" fill="white"/>
</g>
</g>
<defs>
<clipPath id="clip0_3892_2597">
<rect width="265" height="117" fill="white"/>
</clipPath>
<clipPath id="clip1_3892_2597">
<rect width="265" height="116.884" fill="white"/>
</clipPath>
</defs>
</svg>
