<svg width="183" height="54" viewBox="0 0 183 54" fill="none" xmlns="http://www.w3.org/2000/svg">
<g clip-path="url(#clip0_3892_2713)">
<rect x="0.498046" y="0.499999" width="181" height="52.9999" rx="6.49999" stroke="#575762" stroke-width="0.999999"/>
<path fill-rule="evenodd" clip-rule="evenodd" d="M78.5939 9.13931C78.0214 9.12339 77.4518 9.22512 76.9202 9.43823C76.3874 9.65181 75.9043 9.97271 75.5008 10.381L75.4993 10.3825C74.6963 11.2217 74.2481 12.3384 74.2481 13.4999C74.2481 14.6613 74.6963 15.778 75.4993 16.6172L75.5009 16.6188C75.8978 17.0201 76.3719 17.337 76.8945 17.5504C77.4165 17.7635 77.9761 17.8689 78.5398 17.8604C79.1933 17.8711 79.8408 17.7328 80.433 17.4562L80.4345 17.4554C80.9717 17.1963 81.4474 16.8253 81.8295 16.3673L81.9093 16.2717L80.9845 15.364L80.8912 15.4813C80.6146 15.8291 80.2653 16.1123 79.8678 16.311C79.4704 16.5098 79.0343 16.6193 78.5901 16.6319C78.1932 16.642 77.7983 16.5705 77.4301 16.4219C77.0626 16.2735 76.7293 16.0515 76.4509 15.7695C75.8932 15.1558 75.5841 14.3562 75.5841 13.5269C75.5841 12.6975 75.8931 11.8979 76.4509 11.2842C76.7293 11.0022 77.0626 10.7802 77.4301 10.6318C77.7984 10.4832 78.1933 10.4117 78.5904 10.4218L78.6 10.4217C79.01 10.403 79.4185 10.4829 79.7911 10.6547C80.1638 10.8266 80.4898 11.0853 80.7418 11.4092L80.8348 11.5288L81.7468 10.634L81.668 10.5385C81.2954 10.0863 80.8244 9.72522 80.291 9.48275C79.7587 9.24081 79.1783 9.12337 78.5939 9.13931ZM67.4815 9.46807C68.0064 9.25024 68.5691 9.13811 69.1374 9.13811C69.7057 9.13811 70.2684 9.25024 70.7933 9.46807C71.3182 9.6859 71.7949 10.0052 72.1962 10.4075C72.5989 10.8145 72.9165 11.2983 73.1295 11.8297C73.3422 12.3602 73.4468 12.9277 73.4372 13.4991C73.4532 14.0718 73.3515 14.6417 73.1383 15.1735C72.9248 15.7062 72.604 16.1892 72.1959 16.5926C71.7946 16.9948 71.318 17.3139 70.7933 17.5317C70.2684 17.7495 69.7057 17.8616 69.1374 17.8616C68.5691 17.8616 68.0064 17.7495 67.4815 17.5317C66.9566 17.3138 66.4799 16.9946 66.0786 16.5922L66.0766 16.5902C65.2802 15.7585 64.8357 14.6514 64.8357 13.4999C64.8357 12.3483 65.2803 11.2413 66.0767 10.4095L66.0786 10.4075C66.4799 10.0051 66.9566 9.6859 67.4815 9.46807ZM114.245 9.46807C114.77 9.25024 115.333 9.13811 115.901 9.13811C116.47 9.13811 117.032 9.25024 117.557 9.46807C118.082 9.6859 118.559 10.0052 118.96 10.4075L118.963 10.4101C119.752 11.2449 120.193 12.3506 120.193 13.4999C120.193 14.5475 119.827 15.5588 119.164 16.3619H119.204L118.973 16.5923C118.571 16.9951 118.093 17.3146 117.567 17.5326C117.041 17.7506 116.477 17.8628 115.908 17.8628C115.339 17.8628 114.775 17.7506 114.249 17.5326C113.723 17.3146 113.245 16.9951 112.842 16.5923L112.84 16.5902C112.044 15.7585 111.6 14.6514 111.6 13.4999C111.6 12.3483 112.044 11.2413 112.84 10.4095L112.842 10.4075C113.244 10.0052 113.72 9.6859 114.245 9.46807ZM128.984 9.96963C128.507 9.54218 127.888 9.30861 127.247 9.31487H124.184V17.6872L127.41 17.6309C128.083 17.6425 128.735 17.393 129.228 16.9348C129.477 16.7179 129.676 16.4489 129.81 16.1468C129.943 15.8446 130.009 15.5167 130.002 15.1864C130.005 14.744 129.863 14.3128 129.597 13.9588L129.596 13.9568C129.386 13.6888 129.12 13.4725 128.818 13.3228C129.052 13.1757 129.254 12.982 129.411 12.7528L129.414 12.7495C129.624 12.4222 129.735 12.0404 129.732 11.6511C129.738 11.3333 129.674 11.0181 129.545 10.7277C129.416 10.437 129.225 10.1782 128.984 9.96963ZM57.5474 9.31487H63.2174V16.4159H64.1219V19.3859H62.8529V17.6849H56.9804V19.3994H55.7249V16.4294H56.637C56.9807 16.0442 57.2401 15.5911 57.3983 15.0992C57.549 14.6306 57.5481 14.2502 57.5467 13.6778V13.6761C57.5466 13.6442 57.5465 13.6117 57.5464 13.5786C57.5464 13.5527 57.5464 13.5265 57.5464 13.4999L57.5474 9.31487ZM82.5225 9.31487H88.3545V10.5839H86.1V17.6849H84.7905V10.5839H82.5225V9.31487ZM88.7393 9.31487H90.2657L92.174 13.7503L94.0565 9.31487H95.5829L92.4373 16.3266C92.3573 16.6154 92.2162 16.8837 92.0235 17.1134C91.8285 17.3457 91.5853 17.5329 91.3107 17.6619C91.0362 17.791 90.7369 17.8588 90.4335 17.8606C90.1302 17.8625 89.83 17.7984 89.5539 17.6727L89.4485 17.6248L89.7964 16.3896L89.946 16.4737C90.092 16.5557 90.2558 16.6008 90.4232 16.6049L90.4266 16.605C90.5957 16.6135 90.7633 16.5705 90.9074 16.4818C91.05 16.3612 91.1593 16.206 91.2249 16.031L91.2283 16.022L91.5 15.4299L88.7393 9.31487ZM96.414 9.31487H102.543V17.6849H101.234V10.5839H97.7235V17.6849H96.414V9.31487ZM104.122 9.31487H105.432V12.7844H109.212V9.31487H110.535V17.6849H109.212V14.0264H105.432V17.6849H104.122V9.31487ZM70.2756 10.6118C69.914 10.461 69.525 10.3871 69.1333 10.3948L69.1288 10.3949C68.7372 10.3895 68.3486 10.4644 67.9872 10.6152C67.6264 10.7657 67.3003 10.9885 67.029 11.2699C66.4783 11.8821 66.1736 12.6764 66.1736 13.4999C66.1736 14.3233 66.4783 15.1177 67.029 15.7298C67.3003 16.0112 67.6264 16.234 67.9872 16.3845C68.3486 16.5353 68.7372 16.6103 69.1288 16.6049L69.1333 16.6048C69.525 16.6126 69.914 16.5388 70.2756 16.3879C70.6368 16.2372 70.9627 16.013 71.2326 15.7296C71.7917 15.1216 72.102 14.3258 72.102 13.4999C72.102 12.6739 71.7917 11.8781 71.2326 11.2701C70.9627 10.9867 70.6368 10.7625 70.2756 10.6118ZM115.905 10.3948C115.514 10.3871 115.125 10.461 114.763 10.6118C114.402 10.7625 114.076 10.9867 113.806 11.2702C113.247 11.8782 112.937 12.6739 112.937 13.4999C112.937 14.3258 113.247 15.1216 113.806 15.7295C114.076 16.013 114.402 16.2372 114.763 16.3879C115.125 16.5388 115.514 16.6127 115.905 16.6049L115.91 16.6049C116.301 16.6103 116.69 16.5353 117.051 16.3845C117.412 16.234 117.738 16.0112 118.01 15.7298C118.56 15.1177 118.865 14.3233 118.865 13.4999C118.865 12.6764 118.56 11.8821 118.01 11.2699C117.738 10.9885 117.412 10.7657 117.051 10.6152C116.69 10.4644 116.301 10.3894 115.91 10.3949L115.905 10.3948ZM127.785 10.634C127.647 10.5763 127.498 10.5499 127.349 10.5567L127.343 10.557L125.531 10.5569L125.495 12.7844H127.256C127.412 12.7934 127.569 12.7672 127.714 12.7072C127.859 12.6472 127.988 12.5552 128.092 12.4381L128.098 12.4312C128.302 12.2318 128.419 11.9603 128.423 11.6754L128.423 11.672C128.434 11.3854 128.335 11.1053 128.146 10.8894C128.046 10.7787 127.923 10.6915 127.785 10.634ZM58.8569 10.5839V13.4961C58.9135 14.5277 58.6802 15.5528 58.1857 16.4564H61.8674V10.5839H58.8569ZM127.909 14.118C127.752 14.0532 127.583 14.0219 127.414 14.0263L127.41 14.0264H125.493V16.4159H127.469C127.632 16.4213 127.794 16.3908 127.943 16.3263C128.093 16.2618 128.227 16.1651 128.335 16.0429L128.338 16.0401C128.547 15.8165 128.664 15.5221 128.666 15.2159C128.658 14.9121 128.536 14.6223 128.325 14.4036C128.208 14.2806 128.066 14.1829 127.909 14.118ZM64.4463 31.1309V33.5609H70.2783C70.1868 34.7054 69.7111 35.7854 68.9283 36.6254C68.3433 37.2214 67.6396 37.688 66.8629 37.995C66.0862 38.3019 65.2537 38.4424 64.4193 38.4074C62.7007 38.4074 61.0525 37.7246 59.8372 36.5094C58.622 35.2942 57.9393 33.646 57.9393 31.9274C57.9393 30.2088 58.622 28.5606 59.8372 27.3453C61.0525 26.1301 62.7007 25.4474 64.4193 25.4474C66.0669 25.4229 67.6578 26.0486 68.8473 27.1889L70.5618 25.4744C69.7572 24.6786 68.8018 24.0513 67.7517 23.6294C66.7016 23.2075 65.5778 22.9995 64.4463 23.0174C63.2461 22.9707 62.0489 23.1667 60.9263 23.5938C59.8038 24.0209 58.779 24.6701 57.9133 25.5027C57.0477 26.3353 56.359 27.3341 55.8886 28.4392C55.4182 29.5444 55.1758 30.7331 55.1758 31.9341C55.1758 33.1352 55.4182 34.3239 55.8886 35.429C56.359 36.5341 57.0477 37.5329 57.9133 38.3655C58.779 39.1981 59.8038 39.8474 60.9263 40.2745C62.0489 40.7015 63.2461 40.8976 64.4463 40.8509C65.6011 40.897 66.7526 40.6983 67.8252 40.2679C68.8978 39.8374 69.8672 39.185 70.6698 38.3534C72.0874 36.796 72.8428 34.7478 72.7758 32.6429C72.7806 32.1363 72.7399 31.6302 72.6543 31.1309H64.4463ZM125.615 33.0209C125.263 31.9851 124.604 31.0806 123.727 30.4273C122.849 29.774 121.794 29.4026 120.701 29.3624C119.962 29.3609 119.231 29.511 118.553 29.8032C117.875 30.0954 117.264 30.5236 116.758 31.0614C116.252 31.5991 115.861 32.235 115.611 32.9296C115.36 33.6242 115.255 34.3629 115.301 35.0999C115.289 36.3322 115.677 37.5352 116.405 38.5292C117.134 39.5232 118.164 40.2548 119.343 40.6148C120.522 40.9748 121.785 40.9438 122.945 40.5265C124.104 40.1091 125.098 39.3279 125.777 38.2994L123.819 36.9494C123.527 37.4357 123.114 37.8374 122.619 38.1144C122.124 38.3915 121.565 38.5344 120.998 38.5289C120.413 38.553 119.834 38.3996 119.338 38.0888C118.841 37.778 118.45 37.3243 118.217 36.7874L125.898 33.6149L125.615 33.0209ZM117.785 34.9379C117.757 34.5185 117.814 34.0979 117.951 33.7007C118.088 33.3036 118.303 32.9377 118.584 32.6247C118.864 32.3116 119.204 32.0577 119.584 31.8777C119.964 31.6977 120.375 31.5952 120.795 31.5764C121.23 31.5498 121.663 31.6522 122.04 31.8708C122.417 32.0893 122.722 32.4142 122.915 32.8049L117.785 34.9379ZM111.548 40.4999H114.072V23.6249H111.548V40.4999ZM107.417 30.6449H107.322C106.945 30.2154 106.48 29.8724 105.958 29.6394C105.436 29.4064 104.87 29.2889 104.298 29.2949C102.823 29.3664 101.432 30.0028 100.413 31.0723C99.3941 32.1417 98.8258 33.5621 98.8258 35.0391C98.8258 36.5161 99.3941 37.9366 100.413 39.006C101.432 40.0754 102.823 40.7118 104.298 40.7834C104.871 40.7948 105.438 40.6798 105.961 40.4464C106.484 40.213 106.949 39.8671 107.322 39.4334H107.417V40.2569C107.417 42.4574 106.242 43.6319 104.352 43.6319C103.721 43.618 103.108 43.4168 102.591 43.0538C102.074 42.6909 101.677 42.1825 101.45 41.5934L99.2627 42.4979C99.6671 43.5134 100.37 44.3823 101.279 44.9897C102.188 45.5972 103.259 45.9145 104.352 45.8999C107.309 45.8999 109.752 44.1584 109.752 39.9194V29.6999H107.417V30.6449ZM104.514 38.5829C103.63 38.5277 102.799 38.1375 102.193 37.4916C101.586 36.8457 101.248 35.9928 101.248 35.1066C101.248 34.2204 101.586 33.3675 102.193 32.7216C102.799 32.0758 103.63 31.6855 104.514 31.6304C104.947 31.649 105.371 31.7545 105.761 31.9404C106.152 32.1263 106.502 32.3889 106.789 32.7126C107.076 33.0363 107.295 33.4145 107.433 33.8246C107.571 34.2347 107.625 34.6684 107.592 35.0999C107.629 35.5328 107.578 35.9687 107.441 36.3812C107.305 36.7937 107.086 37.1743 106.798 37.4999C106.511 37.8255 106.16 38.0893 105.767 38.2754C105.375 38.4616 104.948 38.5662 104.514 38.5829ZM137.441 23.6249H131.393V40.4999H133.917V34.1009H137.441C138.16 34.1526 138.883 34.0555 139.563 33.8157C140.243 33.5758 140.867 33.1984 141.395 32.707C141.923 32.2155 142.344 31.6206 142.632 30.9592C142.92 30.2978 143.069 29.5842 143.069 28.8629C143.069 28.1415 142.92 27.4279 142.632 26.7666C142.344 26.1052 141.923 25.5102 141.395 25.0188C140.867 24.5273 140.243 24.1499 139.563 23.9101C138.883 23.6703 138.16 23.5732 137.441 23.6249ZM137.441 31.7249H133.917V25.9739H137.495C137.874 25.9739 138.25 26.0486 138.6 26.1938C138.951 26.339 139.269 26.5518 139.538 26.82C139.806 27.0883 140.019 27.4068 140.164 27.7573C140.309 28.1078 140.384 28.4835 140.384 28.8629C140.384 29.2423 140.309 29.6179 140.164 29.9684C140.019 30.319 139.806 30.6374 139.538 30.9057C139.269 31.174 138.951 31.3868 138.6 31.532C138.25 31.6771 137.874 31.7519 137.495 31.7519L137.441 31.7249ZM153.02 29.3084C152.1 29.2517 151.185 29.4657 150.386 29.924C149.587 30.3823 148.939 31.0647 148.524 31.8869L150.752 32.8184C150.977 32.4126 151.315 32.0806 151.724 31.8626C152.134 31.6446 152.598 31.5499 153.06 31.5899C153.381 31.5524 153.705 31.5792 154.015 31.6686C154.325 31.758 154.615 31.9083 154.866 32.1106C155.117 32.3129 155.326 32.5632 155.479 32.847C155.633 33.1308 155.728 33.4423 155.76 33.7634V33.9254C154.948 33.4987 154.045 33.2762 153.128 33.2774C150.725 33.2774 148.268 34.6274 148.268 37.0844C148.291 37.6066 148.42 38.1187 148.645 38.5904C148.871 39.062 149.189 39.4834 149.581 39.8297C149.972 40.176 150.43 40.4401 150.925 40.6062C151.421 40.7724 151.945 40.8372 152.466 40.7969C153.1 40.8319 153.731 40.6978 154.296 40.4084C154.86 40.119 155.338 39.6846 155.679 39.1499H155.76V40.4999H158.19V34.0064C158.19 31.0499 155.949 29.3354 153.074 29.3354L153.02 29.3084ZM152.709 38.5559C151.886 38.5559 150.738 38.1374 150.738 37.1249C150.738 35.7749 152.169 35.3159 153.438 35.3159C154.24 35.2961 155.033 35.4919 155.733 35.8829C155.648 36.616 155.301 37.2936 154.755 37.79C154.209 38.2865 153.501 38.5682 152.763 38.5829L152.709 38.5559ZM167.046 29.6999L164.157 37.0169H164.076L161.079 29.6999H158.379L162.875 39.9329L160.31 45.6164H162.942L169.854 29.6999H167.046ZM144.366 40.4999H146.877V23.6249H144.366V40.4999ZM76.2118 30.3392C77.156 29.705 78.2671 29.3651 79.4046 29.3624C80.1633 29.3479 80.9172 29.4861 81.6214 29.769C82.3256 30.0518 82.9657 30.4734 83.5035 31.0088C84.0414 31.5441 84.466 32.1822 84.7521 32.8851C85.0383 33.5879 85.1801 34.3412 85.1691 35.0999C85.1717 36.2374 84.837 37.3501 84.2073 38.2973C83.5776 39.2445 82.6812 39.9837 81.6314 40.4215C80.5815 40.8592 79.4255 40.9758 78.3094 40.7565C77.1933 40.5372 76.1672 39.9919 75.3611 39.1895C74.5549 38.3871 74.0048 37.3637 73.7802 36.2486C73.5557 35.1336 73.6669 33.977 74.0997 32.9251C74.5325 31.8732 75.2675 30.9733 76.2118 30.3392ZM77.664 38.1223C78.2678 38.4742 78.9635 38.6363 79.6606 38.5875C80.1039 38.5772 80.5406 38.4783 80.945 38.2966C81.3494 38.1148 81.7133 37.854 82.0152 37.5294C82.3172 37.2047 82.5511 36.8229 82.7032 36.4065C82.8552 35.99 82.9224 35.5473 82.9006 35.1045C82.8989 34.4056 82.687 33.7235 82.2925 33.1466C81.8979 32.5698 81.339 32.125 80.6882 31.87C80.0375 31.6151 79.3252 31.5618 78.6438 31.7171C77.9624 31.8723 77.3435 32.229 76.8675 32.7407C76.3915 33.2524 76.0804 33.8955 75.9747 34.5863C75.869 35.2772 75.9736 35.9838 76.2749 36.6144C76.5761 37.245 77.0601 37.7704 77.664 38.1223ZM91.9833 29.3624C90.8459 29.3651 89.7348 29.705 88.7906 30.3392C87.8463 30.9733 87.1113 31.8732 86.6785 32.9251C86.2457 33.977 86.1345 35.1336 86.359 36.2486C86.5835 37.3637 87.1337 38.3871 87.9398 39.1895C88.746 39.9919 89.772 40.5372 90.8881 40.7565C92.0042 40.9758 93.1603 40.8592 94.2101 40.4215C95.26 39.9837 96.1564 39.2445 96.7861 38.2973C97.4158 37.3501 97.7505 36.2374 97.7478 35.0999C97.7588 34.3412 97.6171 33.5879 97.3309 32.8851C97.0448 32.1822 96.6201 31.5441 96.0823 31.0088C95.5444 30.4734 94.9044 30.0518 94.2002 29.769C93.496 29.4861 92.7421 29.3479 91.9833 29.3624ZM92.2394 38.5875C91.5423 38.6363 90.8465 38.4742 90.2427 38.1223C89.6389 37.7704 89.1549 37.245 88.8537 36.6144C88.5524 35.9838 88.4478 35.2772 88.5535 34.5863C88.6592 33.8955 88.9702 33.2524 89.4462 32.7407C89.9222 32.229 90.5412 31.8723 91.2226 31.7171C91.904 31.5618 92.6163 31.6151 93.267 31.87C93.9177 32.125 94.4767 32.5698 94.8713 33.1466C95.2658 33.7235 95.4777 34.4056 95.4794 35.1045C95.5012 35.5473 95.434 35.99 95.282 36.4065C95.1299 36.8229 94.896 37.2047 94.594 37.5294C94.292 37.854 93.9281 38.1148 93.5238 38.2966C93.1194 38.4783 92.6827 38.5772 92.2394 38.5875Z" fill="#575762"/>
<path d="M14.1384 10.1792C13.6935 10.7052 13.4665 11.3813 13.5039 12.0692V41.9312C13.4579 42.6202 13.686 43.2995 14.1384 43.8212L14.2329 43.9292L30.9593 27.2027V26.7977L14.2329 10.0847L14.1384 10.1792Z" fill="url(#paint0_linear_3892_2713)"/>
<path d="M36.494 32.7777L30.959 27.2022V26.7972L36.494 21.2217L36.6155 21.3027L43.244 25.0557C45.134 26.1222 45.134 27.8772 43.244 28.9572L36.6425 32.7102L36.494 32.7777Z" fill="url(#paint1_linear_3892_2713)"/>
<path d="M36.6586 32.6965L30.9616 26.9995L14.1406 43.8205C14.5221 44.16 15.0104 44.3554 15.5208 44.3727C16.0312 44.3899 16.5316 44.228 16.9351 43.915L36.6586 32.6965Z" fill="url(#paint2_linear_3892_2713)"/>
<path d="M36.6586 21.3025L16.9351 10.0975C16.5342 9.78013 16.0342 9.61427 15.5231 9.62909C15.012 9.6439 14.5225 9.83844 14.1406 10.1785L30.9616 26.9995L36.6586 21.3025Z" fill="url(#paint3_linear_3892_2713)"/>
</g>
<defs>
<linearGradient id="paint0_linear_3892_2713" x1="29.4743" y1="11.7587" x2="6.82136" y2="34.4117" gradientUnits="userSpaceOnUse">
<stop stop-color="#00A0FF"/>
<stop offset="0.01" stop-color="#00A1FF"/>
<stop offset="0.26" stop-color="#00BEFF"/>
<stop offset="0.51" stop-color="#00D2FF"/>
<stop offset="0.76" stop-color="#00DFFF"/>
<stop offset="1" stop-color="#00E3FF"/>
</linearGradient>
<linearGradient id="paint1_linear_3892_2713" x1="45.7145" y1="26.9997" x2="13.058" y2="26.9997" gradientUnits="userSpaceOnUse">
<stop stop-color="#FFE000"/>
<stop offset="0.41" stop-color="#FFBD00"/>
<stop offset="0.78" stop-color="#FFA500"/>
<stop offset="1" stop-color="#FF9C00"/>
</linearGradient>
<linearGradient id="paint2_linear_3892_2713" x1="33.5671" y1="30.1045" x2="2.84113" y2="60.817" gradientUnits="userSpaceOnUse">
<stop stop-color="#FF3A44"/>
<stop offset="1" stop-color="#C31162"/>
</linearGradient>
<linearGradient id="paint3_linear_3892_2713" x1="9.90163" y1="0.242508" x2="23.6176" y2="13.9585" gradientUnits="userSpaceOnUse">
<stop stop-color="#32A071"/>
<stop offset="0.07" stop-color="#2DA771"/>
<stop offset="0.48" stop-color="#15CF74"/>
<stop offset="0.8" stop-color="#06E775"/>
<stop offset="1" stop-color="#00F076"/>
</linearGradient>
<clipPath id="clip0_3892_2713">
<rect width="182.25" height="53.9999" fill="white"/>
</clipPath>
</defs>
</svg>
