<svg width="125" height="125" viewBox="0 0 125 125" fill="none" xmlns="http://www.w3.org/2000/svg">
<path fill-rule="evenodd" clip-rule="evenodd" d="M0 0V35H35V0H0ZM4.99999 4.99999V30H30V4.99999H4.99999ZM25 9.99999H9.99999V25H25V9.99999ZM0 89.9999V125H35V89.9999H0ZM4.99999 94.9999V120H30V94.9999H4.99999ZM25 99.9999H9.99999V115H25V99.9999ZM89.9999 35V0H125V35H89.9999ZM94.9999 30V4.99999H120V30H94.9999ZM99.9999 9.99999H115V25H99.9999V9.99999ZM39.9999 0H44.9999V4.99999H39.9999V0ZM44.9999 15V20H49.9999V15V13.3333V9.99999H54.9999V18.3333V20V20.8333V25V30H49.9999V25H44.9999H43.3333H39.9999V35H44.9999V30H49.9999V35H54.9999V39.9999H44.9999V49.9999H49.9999V54.9999H54.9999V64.9999H59.9999V74.9999H54.9999V69.9999H49.9999V74.9999H44.9999V79.9999H49.9999V89.9999H44.9999V84.9999H39.9999V94.9999H42.4999H44.9999V99.9999H49.9999V105H44.9999V110H39.9999V115H44.9999V120H39.9999V125H44.9999V120H47.4999H49.9999H59.9999V125H62.4999H64.9999H79.9999H81.6666H84.9999V115H89.9999V120H94.9999V125H105V120H110V115H125V110H120V105H125V84.9999H120V74.9999H125V59.9999H120V64.9999H110V59.9999H105V49.9999H99.9999V39.9999H94.9999V44.9999H89.9999V49.9999H84.9999V47.4999V44.9999V39.9999H79.9999V35H84.9999V25H79.9999V35H74.9999V30H69.9999V39.9999H72.4999H74.9999H79.9999V44.9999H64.9999V39.9999H59.9999V35H64.9999V30H59.9999V25H64.9999V20H69.9999V25H74.9999V20H79.9999V9.99999H84.9999V4.99999H79.9999V9.99999H69.9999V4.99999V3.33333V0H54.9999V4.99999H49.9999V9.99999H39.9999V15H44.9999ZM64.9999 9.99999V4.99999H54.9999V9.99999H64.9999ZM59.9999 30V35H54.9999V30H59.9999ZM59.9999 44.9999V39.9999H54.9999V44.9999H59.9999ZM69.9999 64.9999V59.9999H64.9999V54.9999H59.9999V44.9999H64.9999V49.9999H69.9999V54.9999H79.9999V49.9999H84.9999V59.9999H89.9999V69.9999H94.9999V74.9999H89.9999V79.9999H79.9999V74.9999V69.9999V59.9999H74.9999V64.9999H69.9999ZM69.9999 64.9999H64.9999V69.9999H69.9999V64.9999ZM89.9999 59.9999H94.9999V49.9999H89.9999V59.9999ZM105 59.9999H99.9999V62.4999V64.9999V69.9999V74.9999H105V59.9999ZM110 94.9999H105V84.9999H107.5H110V69.9999H120V74.9999H115V84.9999H120V94.9999H115V89.9999H110V94.9999ZM110 94.9999H115V99.9999H120V105H115V110H105V105V103.333V102.5V99.9999H110V94.9999ZM94.9999 115V120H105V115H94.9999ZM94.9999 115V110H99.9999V105H89.9999V108.333V110V115H94.9999ZM84.9999 115V110H79.9999H74.9999V115H64.9999V120H79.9999V115H84.9999ZM49.9999 105V115H59.9999V110V107.5V105H49.9999ZM49.9999 99.9999H64.9999V105H69.9999V99.9999H74.9999V94.9999H79.9999V84.9999H75.8332H74.9999V74.9999H64.9999V79.9999H62.4999H59.9999H54.9999V89.9999H59.9999V94.9999H54.9999H49.9999V99.9999ZM0 39.9999H4.99999V44.9999H0V39.9999ZM4.99999 69.9999V64.9999H9.99999V59.9999H0V62.4999V64.9999V69.9999H4.99999ZM20 64.9999H15V59.9999V57.4999V54.9999H25V59.9999H20V64.9999ZM30 79.9999H25V69.9999H20V64.9999H25V59.9999H27.5H30H35H36.6666H39.9999V64.9999H44.9999V69.9999H39.9999V79.9999H35V74.9999H30V79.9999ZM30 79.9999V84.9999H35V79.9999H30ZM44.9999 59.9999H39.9999V54.9999H44.9999V59.9999ZM44.9999 59.9999V64.9999H49.9999V59.9999H44.9999ZM39.9999 54.9999H25V49.9999H35V44.9999H30V39.9999H35H36.6666H39.9999V49.9999V51.6666V54.9999ZM35 69.9999V64.9999H30V69.9999H35ZM84.9999 84.9999H89.9999H99.9999V99.9999H84.9999V84.9999ZM110 39.9999H115V54.9999H110V39.9999ZM125 39.9999H120V54.9999H125V39.9999ZM64.9999 84.9999H69.9999V94.9999H64.9999V84.9999ZM94.9999 89.9999H89.9999V94.9999H94.9999V89.9999ZM125 120H120V125H125V120ZM0 49.9999V54.9999H9.99999V49.9999H15V39.9999H9.99999V49.9999H0ZM15 79.9999H9.99999V74.9999H15V79.9999ZM9.99999 74.9999H0V79.9999H9.99999V84.9999H20V82.4999V79.9999V74.9999H15V69.9999H9.99999V74.9999Z" fill="#575762"/>
</svg>
