<svg width="169" height="72" viewBox="0 0 169 72" fill="none" xmlns="http://www.w3.org/2000/svg">
<g clip-path="url(#clip0_3892_3167)">
<path d="M169 0H0V72H169V0Z" fill="white"/>
<path d="M72.5217 43.8261H68.1738V25.5652H72.5217V43.8261Z" fill="#D0D0D3"/>
<path d="M81.217 48.1741H76.8691V30.7828H81.217V48.1741Z" fill="#D0D0D3"/>
<path d="M89.9123 34.2609H85.5645V24.6957H89.9123V34.2609Z" fill="#D0D0D3"/>
<path d="M29.0431 34.2611H24.6953V21.2177H29.0431V34.2611Z" fill="#D0D0D3"/>
<path d="M37.7385 43.826H33.3906V26.4347H37.7385V43.826Z" fill="#D0D0D3"/>
<path d="M20.3478 43.8261H16V34.2609H20.3478V43.8261Z" fill="#D0D0D3"/>
<path fill-rule="evenodd" clip-rule="evenodd" d="M42.0859 25.5652H46.4338V16H42.0859V25.5652Z" fill="#E1372F"/>
<path fill-rule="evenodd" clip-rule="evenodd" d="M42.086 52.522H46.4338V29.9133H42.086V52.522Z" fill="#E1372F"/>
<path fill-rule="evenodd" clip-rule="evenodd" d="M50.7832 52.5217H55.131V16H50.7832V52.5217Z" fill="#E1372F"/>
<path fill-rule="evenodd" clip-rule="evenodd" d="M59.4785 25.5652H63.8263V16H59.4785V25.5652Z" fill="#E1372F"/>
<path fill-rule="evenodd" clip-rule="evenodd" d="M59.4785 52.522H63.8264V29.9133H59.4785V52.522Z" fill="#E1372F"/>
<path d="M103.178 29.9485H101.172V39.4347H103.178V29.9485ZM104.597 31.6021H107.501V39.4347H109.484V31.6021H112.388V29.9485H104.597V31.6021ZM115.807 29.9485H113.801V39.4347H115.807V29.9485Z" fill="#E1372F"/>
<path d="M109.13 46.8263C108.778 44.8809 107.221 43.7322 105.313 43.7322C102.886 43.7322 101.126 45.6035 101.126 48.6049C101.126 51.6064 102.886 53.4777 105.313 53.4777C107.221 53.4777 108.778 52.329 109.13 50.3836H107.981C107.703 51.6991 106.573 52.4031 105.313 52.4031C103.59 52.4031 102.237 51.0691 102.237 48.6049C102.237 46.1408 103.59 44.8068 105.313 44.8068C106.573 44.8068 107.703 45.5108 107.981 46.8263H109.13ZM111.506 53.348L112.46 50.6615H116.295L117.249 53.348H118.453L114.97 43.8619H113.784L110.301 53.348H111.506ZM112.821 49.6425L114.34 45.3626H114.414L115.934 49.6425H112.821ZM120.061 53.348H121.21V49.8833H123.285C125.495 49.8833 126.491 48.5401 126.491 46.8633C126.491 45.1866 125.495 43.8619 123.267 43.8619H120.061V53.348ZM121.21 48.8643V44.8809H123.23C124.772 44.8809 125.36 45.7239 125.36 46.8633C125.36 48.0028 124.772 48.8643 123.248 48.8643H121.21ZM129.62 43.8619H128.471V53.348H129.62V43.8619ZM131.535 44.8809H134.518V53.348H135.667V44.8809H138.65V43.8619H131.535V44.8809ZM139.181 53.348L140.135 50.6615H143.971L144.925 53.348H146.129L142.646 43.8619H141.46L137.977 53.348H139.181ZM140.497 49.6425L142.016 45.3626H142.09L143.609 49.6425H140.497ZM147.541 53.348H153.1V52.329H148.69V43.8619H147.541V53.348Z" fill="#E1372F"/>
</g>
<defs>
<clipPath id="clip0_3892_3167">
<rect width="169" height="72" fill="white"/>
</clipPath>
</defs>
</svg>
