<svg width="104" height="104" viewBox="0 0 104 104" fill="none" xmlns="http://www.w3.org/2000/svg">
<rect width="104" height="104" rx="52" fill="#F1F1F1"/>
<path d="M63.1331 52.1203C63.1331 58.1879 58.2103 63.1107 52.1427 63.1107C46.0751 63.1107 41.1523 58.1879 41.1523 52.1203C41.1523 46.0527 46.0751 41.1299 52.1427 41.1299C58.2103 41.1299 63.1331 46.0756 63.1331 52.1203ZM52.1427 15.6001C31.9936 15.6001 15.5996 31.9941 15.5996 52.1432C15.5996 72.2923 31.9936 88.6634 52.1427 88.6634C59.5154 88.6634 66.6363 86.4653 72.7268 82.2981L72.8413 82.2294L67.9185 76.5053L67.8269 76.5511C63.1331 79.5505 57.7295 81.1533 52.1427 81.1533C36.1379 81.1533 23.1097 68.1251 23.1097 52.1203C23.1097 36.1155 36.1379 23.0873 52.1427 23.0873C68.1475 23.0873 81.1757 36.1155 81.1757 52.1203C81.1757 54.2039 80.9467 56.2875 80.4888 58.3711C79.5729 62.149 76.9398 63.2939 74.9478 63.1336C72.9558 62.9733 70.6203 61.5537 70.5974 58.0734V52.1203C70.5974 41.9313 62.3088 33.6427 52.1198 33.6427C41.9308 33.6427 33.6422 41.9313 33.6422 52.1203C33.6422 62.3093 41.9308 70.5979 52.1198 70.5979C57.0655 70.5979 61.7135 68.6517 65.2167 65.1485C67.2545 68.3082 70.5745 70.3003 74.3525 70.5979C74.673 70.6208 75.0165 70.6437 75.337 70.6437C77.993 70.6437 80.6261 69.7507 82.7555 68.148C84.9536 66.4765 86.5793 64.0724 87.4722 61.1874C87.6096 60.7294 87.8844 59.6533 87.8844 59.6533V59.6075C88.411 57.2949 88.6629 54.9824 88.6629 52.1203C88.6858 31.9941 72.2918 15.6001 52.1427 15.6001Z" fill="#FC2C38"/>
</svg>
