<svg width="59" height="64" viewBox="0 0 59 64" fill="none" xmlns="http://www.w3.org/2000/svg">
<path d="M24.5994 4.4587L26.2436 7.30619H32.7579L34.402 4.4587H34.3672C34.7513 3.98686 34.989 3.39614 34.989 2.74325C34.989 1.22898 33.7601 0 32.2458 0C31.9239 0 31.6185 0.0658432 31.3314 0.168258V1.82883H27.6737V0.168258C27.3866 0.0658432 27.0812 0 26.7593 0C25.245 0 24.016 1.22898 24.016 2.74325C24.016 3.39614 24.2538 3.98686 24.6342 4.4587H24.5994ZM58.6578 20.4244C58.6596 19.2594 58.3249 18.1841 57.7836 17.2386C57.7836 17.2386 49.0674 22.2862 48.2206 22.7616C46.8746 23.5188 45.9858 22.0301 45.9858 22.0301L52.2807 18.3834C56.0846 16.1815 57.3849 11.3186 55.1885 7.51833C54.4643 6.26009 53.431 5.3091 52.2605 4.62877L42.03 22.4105C42.2038 22.8293 42.3044 23.2902 42.3044 23.7748C42.3044 25.7939 40.6657 27.4325 38.6467 27.4325C36.6277 27.4325 34.989 25.7939 34.989 23.7748V16.4595H42.3044C42.3044 13.4273 39.8483 10.973 36.8142 10.973H32.628L33.8094 13.0195C31.399 15.3165 29.8372 18.473 29.5757 22.0027C29.5574 21.8491 29.5263 21.7009 29.5044 21.5491C29.4824 21.7009 29.4513 21.8491 29.433 22.0027C29.1697 18.473 27.6097 15.3165 25.1993 13.0195L26.3771 10.973H22.1909C19.1568 10.973 16.7007 13.4273 16.7007 16.4595H24.016V23.7748C24.016 25.7939 22.3774 27.4325 20.3584 27.4325C18.3393 27.4325 16.7007 25.7939 16.7007 23.7748C16.7007 23.2902 16.8013 22.8293 16.9696 22.4069L6.73906 4.62512C5.56861 5.30544 4.53715 6.25827 3.81111 7.51467C1.61468 11.315 2.91497 16.1779 6.71894 18.3798L13.0138 22.0265C13.0138 22.0265 12.1268 23.5151 10.779 22.758C9.93221 22.2825 1.21598 17.2349 1.21598 17.2349C0.674647 18.1823 0.339976 19.2558 0.341805 20.4207C0.336318 23.9486 3.19478 26.807 6.72625 26.8088C6.72625 26.8088 11.2691 26.818 11.2965 26.818C11.3111 27.3337 10.8942 28.6871 9.49511 28.6871L3.30817 28.6852C3.31 29.5082 3.49837 30.3385 3.94095 31.0993C5.27051 33.4091 8.21676 34.1992 10.5302 32.8678L12.3572 31.8162C12.6425 32.2387 13.1253 33.4859 11.8068 34.2595L9.15678 35.7903C9.47317 36.3371 9.91392 36.8181 10.4991 37.1527C12.2713 38.1769 14.5317 37.5697 15.5595 35.7976L15.8156 35.3586C16.313 35.5726 17.2402 36.7723 16.538 38.0086C16.0277 38.9047 15.7534 39.3656 15.7534 39.3656C16.196 39.6198 16.7025 39.7808 17.253 39.7808C18.9154 39.7808 20.2633 38.4347 20.2633 36.7668C20.2633 36.7668 20.2761 36.156 20.3547 36.1487C22.0683 36.1487 23.7051 37.7855 23.7051 39.885L16.7007 43.892V47.5496L11.441 48.9597L4.93766 37.5313L2.77598 38.7804L11.9201 54.6181L14.0818 53.369L12.8364 51.2073H16.7007C18.7197 51.2073 20.3584 49.5687 20.3584 47.5496H25.5687L27.4817 50.8617L17.1159 56.8456L21.9476 59.6346L25.3621 56.2201L27.1269 56.6938L25.7498 61.8328L29.5025 64L33.2553 61.8328L31.8782 56.6938L33.6448 56.2201L37.0593 59.6346L41.8911 56.8456L31.5271 50.8617L33.4382 47.5496H38.6467C38.6467 49.5687 40.2853 51.2073 42.3044 51.2073H49.6197C51.6387 51.2073 53.2774 49.5687 53.2774 47.5496C53.2774 45.5306 51.6387 43.892 49.6197 43.892C47.6007 43.892 45.962 45.5306 45.962 47.5496C45.962 47.9099 46.0297 48.2501 46.1266 48.5774L42.3044 47.5496V43.892L35.2963 39.8887C35.2963 37.7892 36.9349 36.1524 38.6467 36.1524C38.7253 36.1597 38.7382 36.7705 38.7382 36.7705C38.7382 38.4384 40.086 39.7844 41.7484 39.7844C42.3007 39.7844 42.8055 39.6235 43.248 39.3693C43.248 39.3693 42.9755 38.9084 42.4635 38.0123C41.7594 36.776 42.6866 35.5763 43.1859 35.3623L43.4419 35.8012C44.4697 37.5734 46.7301 38.1805 48.5023 37.1564C49.0875 36.8217 49.5301 36.3407 49.8447 35.7939L47.1947 34.2632C45.8761 33.4896 46.3589 32.2441 46.6442 31.8199L48.4712 32.8714C50.7847 34.2047 53.7309 33.4128 55.0605 31.103C55.5031 30.3422 55.6914 29.5119 55.6933 28.6889L49.5063 28.6907C48.1054 28.6907 47.6903 27.3374 47.7049 26.8217C47.7324 26.8217 52.2752 26.8125 52.2752 26.8125C55.8066 26.8107 58.6633 23.9522 58.6578 20.4244Z" fill="#F04F48"/>
</svg>
