<svg width="104" height="104" viewBox="0 0 104 104" fill="none" xmlns="http://www.w3.org/2000/svg">
<g clip-path="url(#clip0_3892_2787)">
<rect width="104" height="104" rx="52" fill="#F1F1F1"/>
<path fill-rule="evenodd" clip-rule="evenodd" d="M91.2745 42.9087L82.6165 53.9847L82.6425 60.8227L75.0765 60.7707L75.1545 53.8287L66.6525 42.9087H74.7385L79.0025 48.4987L82.8245 42.9087H91.2745ZM64.2865 43.2727L57.6825 51.9827L64.2865 60.8227H55.2645L51.9885 56.4547L48.6085 60.8227H39.6905L46.3465 51.9827L39.6905 43.0127H48.2445L52.1185 48.4467L55.6805 43.2727H64.2865ZM36.7265 57.7287C36.7265 57.7287 36.6745 50.6567 36.7265 46.8087C36.7785 42.9867 33.6845 43.2987 33.6845 43.2987C33.6845 43.2987 20.5805 43.3507 16.8105 43.2987C13.0405 43.2467 12.7285 46.8087 12.7285 46.8087V54.9467V57.7287C12.7285 60.5107 16.4985 61.1087 16.4985 61.1087C16.4985 61.1087 29.2905 61.2127 33.5025 61.1087C37.7145 61.0047 36.7265 57.7287 36.7265 57.7287ZM29.6545 54.2967C29.6545 54.2967 29.9145 55.9087 28.6665 55.9607C27.4185 56.0127 21.3345 55.9347 21.3345 55.9347C21.3345 55.9347 20.0345 55.5707 20.3465 54.2707V49.6947C20.3465 49.6947 20.2165 48.5247 21.3345 48.5247H28.2245C28.2245 48.5247 29.7065 48.1607 29.6545 49.8247C29.6025 51.5147 29.6545 54.2967 29.6545 54.2967Z" fill="#D14C49"/>
<path fill-rule="evenodd" clip-rule="evenodd" d="M66.9909 36.7724H89.2209C83.1369 22.2124 69.1749 9.8104 48.4789 11.3184C30.8249 12.6184 20.5809 23.7204 14.2109 36.7724C19.4369 29.2324 26.8989 22.3424 37.7929 21.5104C50.6109 20.5224 61.8429 27.9844 66.9909 36.7724ZM89.5072 67.4524C84.2552 74.9664 76.7672 81.8304 65.8472 82.5844C53.0032 83.4944 41.8232 75.9544 36.7012 67.1404C32.9962 67.1144 29.2912 67.0949 25.5862 67.0754C21.8812 67.0559 18.1762 67.0364 14.4712 67.0104C20.4772 81.5964 34.3612 94.1024 55.0572 92.6984C72.7372 91.5024 83.0592 80.4784 89.5072 67.4524Z" fill="#526BAF"/>
</g>
<defs>
<clipPath id="clip0_3892_2787">
<rect width="104" height="104" rx="52" fill="white"/>
</clipPath>
</defs>
</svg>
