<svg width="104" height="104" viewBox="0 0 104 104" fill="none" xmlns="http://www.w3.org/2000/svg">
<g clip-path="url(#clip0_4915_942)">
<rect width="104" height="104" rx="52" fill="#005BFF"/>
<path d="M23.4004 49.296V97.5519V106.6H96.9432L109.2 73.424L84.6861 52.312L72.429 31.2H44.8504L23.4004 49.296Z" fill="#F91155"/>
<path d="M40.9189 24.2729C21.506 32.3213 10.5267 50.0052 16.2195 63.7363C21.9122 77.4673 42.1832 82.1953 61.5961 74.1469C81.0091 66.0985 91.9883 48.4145 86.2956 34.6835C80.6028 20.9523 60.174 16.2899 40.9189 24.2729ZM56.8194 62.6252C43.404 68.1871 30.5163 65.2072 27.9644 59.052C25.4124 52.8965 32.4111 41.6719 45.8265 36.1101C59.242 30.5481 72.1298 33.528 74.6817 39.6834C77.2336 45.8387 70.0771 57.1287 56.8194 62.6252Z" fill="white"/>
</g>
<defs>
<clipPath id="clip0_4915_942">
<rect width="104" height="104" rx="52" fill="white"/>
</clipPath>
</defs>
</svg>
