<svg width="104" height="104" viewBox="0 0 104 104" fill="none" xmlns="http://www.w3.org/2000/svg">
<g clip-path="url(#clip0_3892_2755)">
<rect width="104" height="104" rx="52" fill="#FCEC3A"/>
<path d="M43.404 22.6893H43.3704L43.404 22.6557V22.6893ZM95.7326 49.3752L96.9104 45.5389L93.0404 45.6735C92.7039 45.6735 90.3483 45.6062 88.06 43.8899C88.2282 43.8899 88.3965 43.9236 88.5648 43.9236C90.9204 43.9236 93.2087 42.4766 94.1509 40.3565L95.7999 36.5875C93.7135 36.6211 91.829 36.3519 91.829 36.3519C91.829 36.3519 90.3146 36.15 88.5648 34.3328C87.3196 33.0204 85.7716 32.3474 84.1227 32.3474C83.3824 32.3474 82.743 32.482 82.1709 32.6502C82.2719 32.3474 82.3392 32.0445 82.4065 31.708C82.9449 28.1745 80.7239 25.4488 80.7239 25.4488L77.8298 21.7471L76.0463 26.0881C76.0463 26.0881 75.5752 27.1313 74.7675 27.6025C74.532 26.3237 73.9262 24.8767 72.6474 23.5306C70.2245 20.9394 67.2632 20.5692 65.7152 20.5692C65.0085 20.5692 64.5037 20.6365 64.3691 20.6702L60.8693 21.3769C61.0712 20.5692 61.5087 19.1559 62.2827 17.9108L64.2008 14.8148L59.2877 15.3869L57.7397 11.988L54.7447 13.5697L51.9852 10.7429L49.2258 13.5697L46.2308 11.988L44.6828 15.3869L39.8369 14.8148L41.7551 17.9108C42.5291 19.1559 42.9666 20.5692 43.1685 21.3769L39.8369 20.7039L39.736 20.6702C39.5677 20.6365 39.063 20.5692 38.3563 20.5692C36.8083 20.5692 33.8469 20.9394 31.424 23.5306C30.1452 24.9103 29.5395 26.3237 29.2703 27.6025C28.4626 27.0977 28.0252 26.1218 28.0252 26.1218L26.208 21.7471L23.2466 25.4488C22.8764 25.9199 21.1265 28.4774 21.5977 31.6743C21.6313 31.9772 21.7323 32.3137 21.7996 32.6166C21.2275 32.4483 20.5881 32.3137 19.8478 32.3137C18.1652 32.3137 16.6509 33.0204 15.4057 34.2992C13.6895 36.1164 12.1752 36.3183 12.2088 36.3183C12.2088 36.3183 10.6272 36.6212 8.20426 36.5538L9.8532 40.3228C10.7618 42.4093 13.0501 43.8899 15.4394 43.8899C15.6077 43.8899 15.7759 43.8563 15.9778 43.8563C13.6895 45.5725 11.3002 45.6398 11.031 45.6398L7.09375 45.5052L8.27156 49.3415C8.8773 51.327 10.8628 54.5912 14.6991 54.9614C14.2952 56.7449 13.353 58.764 11.3339 59.639L8.37252 60.8841L9.95415 63.7445C10.8628 65.2925 12.9828 67.076 15.9778 67.076C16.6172 67.076 17.2566 67.0087 17.8623 66.8741C18.0306 67.5808 18.1988 68.2875 18.4344 68.9942C19.343 71.7536 18.569 73.6381 18.5354 73.6718L17.0883 76.8014L20.3189 77.6763C20.3526 77.6763 21.3285 77.9792 22.5399 77.9792C23.0784 77.9792 23.6168 77.9119 24.1216 77.8109C24.4917 77.71 24.8619 77.609 25.1984 77.4408C25.6022 78.2148 26.107 78.9215 26.7127 79.5272C28.7655 81.7146 31.6932 82.8251 35.4286 82.8251L38.1207 82.7578L32.6355 85.1134L36.7746 87.1661C38.289 87.9065 40.0725 88.8151 41.8897 89.4881L41.3849 90.9351L42.832 91.6082C42.9666 91.6755 45.726 92.9206 50.3027 93.1898C50.3027 93.1898 51.4132 93.2571 52.0189 93.2571C52.6246 93.2571 53.7015 93.1898 53.7015 93.1898C58.2445 92.9206 60.9703 91.6418 61.1049 91.6082L62.5519 90.9351L62.0135 89.4881C63.898 88.7814 65.7488 87.8392 67.1959 87.1325L71.2677 85.0797L65.8498 82.7578L68.5083 82.7914C72.21 82.7914 75.1377 81.6809 77.2241 79.4935C77.7962 78.8541 78.3346 78.1811 78.7384 77.4071C79.0749 77.5417 79.4451 77.6763 79.8153 77.7773C80.3201 77.9119 80.8248 77.9455 81.3969 77.9455C82.6084 77.9455 83.5843 77.6763 83.6179 77.6763L86.8485 76.8014L85.4351 73.7391C85.4015 73.6718 84.6275 71.7536 85.5361 68.9942C85.7716 68.2875 85.9399 67.5808 86.1082 66.8741C86.7139 67.0087 87.3533 67.076 87.9927 67.076C91.829 67.076 93.6798 64.3166 94.0163 63.7108L95.598 60.8841L92.6703 59.639C90.6512 58.764 89.7089 56.7449 89.3051 54.9614C93.0741 54.6249 95.0932 51.3606 95.7326 49.3752Z" fill="#FEFEFE"/>
<path d="M51.9852 22.521C48.8893 22.521 46.5673 23.5642 46.0625 24.8093L51.9852 27.2322L57.9079 24.8093C57.4032 23.5642 55.0812 22.521 51.9852 22.521Z" fill="#FEFEFE"/>
<path d="M52.0514 86.2237H51.9168C50.0323 86.2237 47.4411 85.8536 46.196 85.4834L44.6816 89.6562C45.6575 90.0264 49.0227 90.6994 51.9504 90.6994C54.8781 90.6994 58.2097 89.9927 59.2192 89.6562L57.7385 85.4834C56.4934 85.8199 53.9359 86.2237 52.0514 86.2237Z" fill="#FEFEFE"/>
<path d="M63.3954 82.0513C62.2849 82.6907 59.7947 83.6666 58.3477 84.1377L59.5591 87.5702C61.8138 86.9308 63.6646 86.1904 65.179 85.4164L62.6551 84.5752L63.3954 82.0513Z" fill="#FEFEFE"/>
<path d="M40.5804 82.0513L41.3208 84.5415L38.7969 85.4164C40.3112 86.1904 42.1957 86.9308 44.4167 87.5702L45.6282 84.1377C44.2148 83.7002 41.6909 82.7243 40.5804 82.0513Z" fill="#FEFEFE"/>
<path d="M51.9844 18.5504C54.3064 18.5504 56.5947 19.1225 58.3782 20.132C58.5465 19.5936 58.7484 18.8869 59.0849 18.1802L58.4119 18.2475L57.7052 18.3148L57.4023 17.6754L56.5274 15.7573L54.9121 16.6322L54.2727 16.9687L53.7679 16.464L52.018 14.6804L50.2682 16.464L49.7634 16.9687L49.124 16.6322L47.5087 15.7573L46.6338 17.6754L46.3309 18.3148L45.6242 18.2475L44.9512 18.1802C45.254 18.8869 45.4896 19.5599 45.6579 20.132C47.3741 19.1225 49.6624 18.5504 51.9844 18.5504Z" fill="#FEFEFE"/>
<path d="M87.6585 40.8951C87.9613 40.9961 88.2642 41.0634 88.5671 41.0634C89.8795 41.0634 91.1582 40.1884 91.5957 39.1789C91.5957 39.1789 89.1728 39.0443 86.5816 36.3185C85.7403 35.4435 84.8654 35.1743 84.125 35.1743C82.9472 35.1743 82.0723 35.8137 82.0723 35.8137C85.2019 37.5299 85.8413 40.2894 87.6585 40.8951Z" fill="#FEFEFE"/>
<path d="M15.4037 41.0636C15.7065 41.0636 16.0094 41.0299 16.3123 40.8953C18.0958 40.2896 18.7688 37.4965 21.8985 35.7803C21.8985 35.7803 21.0235 35.1409 19.8457 35.1409C19.1054 35.1409 18.1968 35.4101 17.3891 36.285C14.7979 39.0108 12.375 39.1454 12.375 39.1454C12.8125 40.1886 14.0912 41.0636 15.4037 41.0636Z" fill="#FEFEFE"/>
<path d="M86.6833 60.7497C84.2603 59.5046 82.7123 56.2404 82.3422 55.0626C81.9384 61.5574 78.8424 66.0667 75.2416 70.4078C73.3908 72.6625 72.7514 74.8498 72.7514 74.8498C72.7514 74.8498 73.1216 72.3596 74.7369 70.3405C78.1021 66.1677 81.299 61.0189 81.5345 55.0289C81.7028 50.8561 80.6596 47.4573 79.0107 44.6642C79.9192 47.5582 79.7846 51.1253 76.6887 54.4568C76.6887 54.4568 82.847 46.8515 74.2321 39.078C70.7996 36.1166 66.997 34.2994 65.0788 32.987C72.0784 35.3426 75.5109 32.7514 75.5109 32.7514C73.2562 34.7369 70.3621 34.7032 68.5786 34.434C69.0834 34.6696 69.5881 34.9388 70.1266 35.2417C76.0493 38.5395 81.3663 43.9911 82.2749 51.5291V51.4618C83.6209 58.8652 86.6833 60.7497 86.6833 60.7497ZM88.5005 52.1349C88.5678 52.1349 88.6014 52.1349 88.6687 52.1349C91.9666 52.1349 93.0771 48.5005 93.0771 48.5005H93.0098C92.4041 48.5005 87.4909 48.3659 84.0248 43.8229C81.7364 40.8279 79.8856 38.2367 76.1839 37.1935L75.8137 37.1262L75.7464 36.756C75.6455 36.1839 76.0156 35.6455 76.9242 35.0398C82.0057 31.6073 78.5732 27.2325 78.5732 27.2325C78.5732 27.2325 77.1261 30.7323 73.8619 30.7323C73.7946 30.7323 73.6937 30.7323 73.6264 30.7323C73.2562 30.6987 72.886 30.6987 72.5495 30.6314L71.9438 30.4968C71.9438 30.4968 72.886 27.9056 70.6314 25.5163C68.9488 23.7328 66.896 23.3962 65.7182 23.3962C65.1125 23.3962 64.7423 23.4635 64.7423 23.4635C65.8528 24.9779 66.6941 27.5018 65.3817 29.0497C64.2712 30.3958 61.5117 30.4295 61.5117 32.4149C61.5117 33.2562 62.2857 34.2321 63.6318 35.1071C67.771 37.7656 71.8428 41.3326 73.5591 46.0776C75.6791 52.0003 73.2898 55.9375 69.8574 58.1922C69.8574 58.1922 70.9342 59.2018 72.4822 59.3364C72.7851 59.37 73.1216 59.37 73.3908 59.37C76.6887 59.37 78.3713 57.7884 78.3713 57.7884C78.3713 57.7884 78.1021 59.9757 76.3858 61.9948C74.8042 63.8793 72.7514 64.9899 69.5881 65.0235C69.5881 65.0235 69.4872 66.5378 70.9006 67.8503C71.8092 68.6579 73.8619 68.9271 73.8619 68.9271C73.8619 68.9271 69.992 69.7348 69.5545 75.6238C69.3189 78.8207 68.5449 79.8976 68.5449 79.8976H68.6122C77.5973 79.8976 77.3617 71.9894 77.3617 71.9894C77.3617 71.9894 78.0011 74.3451 80.4913 74.9508C80.7942 75.0181 81.1307 75.0517 81.4336 75.0517C82.2412 75.0517 82.9479 74.8498 82.9479 74.8498C82.9479 74.8498 81.6355 71.9894 82.9479 68.0185C84.0248 64.7206 83.8565 62.2641 83.8565 62.2641C83.8565 62.2641 85.068 64.1486 88.063 64.1486H88.0966C90.5869 64.1486 91.6637 62.1968 91.6637 62.1968C85.6737 59.6392 86.2794 51.3945 86.2794 51.3945C86.2794 51.3945 86.9861 52.1012 88.5005 52.1349Z" fill="#FEFEFE"/>
<path d="M28.7319 70.4079C25.1312 66.0668 22.0352 61.5574 21.6314 55.0627C21.2612 56.2405 19.7133 59.5047 17.2903 60.7498C17.2903 60.7498 20.3526 58.8653 21.7324 51.4619V51.5292C22.641 43.9912 27.9579 38.5733 33.8807 35.2417C34.4191 34.9389 34.9239 34.6697 35.4286 34.4341C33.6451 34.737 30.7174 34.7706 28.4964 32.7515C28.4964 32.7515 31.9289 35.3427 38.9284 32.9871C36.9766 34.2995 33.2076 36.1167 29.7751 39.0781C21.1603 46.8516 27.3186 54.4569 27.3186 54.4569C24.2226 51.1254 24.088 47.592 24.9966 44.6643C23.3813 47.4573 22.3381 50.8562 22.4727 55.029C22.7083 61.019 25.9052 66.2014 29.2704 70.3406C30.8856 72.3597 31.2558 74.8499 31.2558 74.8499C31.2558 74.8499 30.5828 72.6625 28.7319 70.4079ZM30.1453 68.9945C30.1453 68.9945 32.1981 68.7253 33.1067 67.9176C34.4864 66.6052 34.3854 65.0909 34.3854 65.0909C31.2222 65.0572 29.1694 63.9467 27.5878 62.0622C25.9052 60.0431 25.6023 57.8558 25.6023 57.8558C25.6023 57.8558 27.2849 59.4374 30.5828 59.4374C30.8856 59.4374 31.1885 59.4374 31.4914 59.4037C33.0394 59.2691 34.1162 58.2596 34.1162 58.2596C30.6837 56.0049 28.2945 52.0676 30.4145 46.1449C32.1308 41.4 36.2026 37.8666 40.3418 35.1744C41.7215 34.2995 42.4619 33.3236 42.4619 32.4823C42.4619 30.4968 39.7361 30.4295 38.5919 29.1171C37.2795 27.5691 38.1208 25.0453 39.2313 23.5309C39.2313 23.5309 38.8611 23.4636 38.2554 23.4636C37.0776 23.4636 35.0248 23.7665 33.3422 25.5837C31.0876 27.973 32.0298 30.5641 32.0298 30.5641L31.4241 30.6988C31.0539 30.7661 30.7174 30.7997 30.3472 30.7997C30.2463 30.7997 30.179 30.7997 30.1117 30.7997C26.8474 30.7997 25.4004 27.2999 25.4004 27.2999C25.4004 27.2999 21.9343 31.6747 27.0493 35.1071C27.9243 35.6792 28.2945 36.2513 28.1935 36.8234L28.1262 37.1936L27.756 37.2609C24.0543 38.3041 22.2035 40.8953 19.9152 43.8903C16.449 48.4333 11.5695 48.5679 10.9301 48.5679H10.8965C10.8965 48.5679 12.007 52.2023 15.3049 52.2023C15.3722 52.2023 15.4058 52.2023 15.4731 52.2023C16.9875 52.1349 17.7614 51.5629 17.7614 51.5629C17.7614 51.5629 18.3335 59.8076 12.3772 62.3651C12.3772 62.3651 13.454 64.3169 15.9779 64.3169H16.0116C19.0066 64.2832 20.218 62.4324 20.218 62.4324C20.218 62.4324 20.0498 64.889 21.1266 68.1869C22.439 72.1578 21.1266 75.0182 21.1266 75.0182C21.1266 75.0182 21.8333 75.2201 22.641 75.2201C22.9438 75.2201 23.2803 75.1864 23.5832 75.1191C26.0734 74.5134 26.7128 72.1578 26.7128 72.1578C26.7128 72.1578 26.4773 80.0659 35.4623 80.0659H35.5296C35.5296 80.0659 34.7556 78.9554 34.52 75.7922C34.0153 69.8021 30.1453 68.9945 30.1453 68.9945Z" fill="#FEFEFE"/>
<path d="M49.9667 39.8182H54.2068V41.2989C53.702 40.6595 52.7261 40.7941 52.7261 40.7941V42.9479C52.7261 42.9479 52.7598 43.9911 53.1299 44.4622H51.0435C51.4137 43.9911 51.4473 42.9479 51.4473 42.9479V40.7941C51.4473 40.7941 50.4714 40.6595 49.9667 41.2989V39.8182ZM45.3564 40.0201C45.491 40.1884 45.6592 40.3567 45.7938 40.5249C45.8275 40.5586 45.8611 40.5922 45.8948 40.6595C46.0294 40.8278 46.164 41.0297 46.265 41.198C46.2986 41.2316 46.3323 41.2653 46.3659 41.3326C46.5005 41.5681 46.6688 41.8037 46.8034 42.0729C48.0822 44.3612 50.1686 45.741 52.0194 45.741C53.8703 45.741 55.923 44.3612 57.2354 42.0729C57.3701 41.8037 57.5383 41.5681 57.6729 41.3326C57.7066 41.2989 57.7066 41.2653 57.7402 41.2316C57.8748 41.0297 58.0094 40.8278 58.144 40.6595C58.1777 40.6259 58.2113 40.5922 58.245 40.5586C58.3796 40.3567 58.5479 40.1884 58.6825 40.0201C58.7161 39.9865 58.7161 39.9528 58.7498 39.9528C59.4228 39.2462 60.1968 38.7414 61.24 38.4385L60.7689 38.1693H60.7352L58.918 37.0924L57.0335 35.9819L52.0194 38.775L47.0053 35.9819L45.1208 37.0924L43.3036 38.1693H43.27L42.7988 38.4385C43.842 38.7414 44.616 39.2462 45.2891 39.9528C45.2891 39.9865 45.3227 40.0201 45.3564 40.0201Z" fill="#FEFEFE"/>
<path d="M50.4027 30.3285V31.7419L50.1335 31.6073C50.1335 31.6073 49.7296 31.5063 49.0566 30.9679C47.9461 30.0929 47.9125 29.2516 47.9125 29.2516L50.4027 30.3285ZM51.5468 36.9242V28.1748L46.1289 26.2903L47.5423 34.7705L51.5468 36.9242Z" fill="#FEFEFE"/>
<path d="M53.5684 30.3285L56.025 29.2516C56.025 29.2516 55.9914 30.0592 54.8809 30.9678C54.2078 31.5063 53.8377 31.6072 53.804 31.6072L53.5348 31.7418V30.3285H53.5684ZM56.3952 34.7368L57.8086 26.2566L52.3906 28.1411V36.8906C52.4243 36.9242 56.3952 34.7368 56.3952 34.7368Z" fill="#FEFEFE"/>
<path d="M43.9093 57.1825C44.4477 57.3844 45.0871 57.418 45.3899 57.418C45.3899 57.3844 45.4236 57.3171 45.4236 57.2498C45.4572 57.1488 45.4909 57.0479 45.4909 56.9469C45.5919 56.4758 45.6255 55.9037 45.6255 55.5672C45.3899 55.4326 45.0871 55.1634 44.9188 54.7932C44.7169 54.3557 44.4477 54.1538 44.0102 54.1538C43.4718 54.1538 42.8661 54.4903 42.6305 54.6586C42.4622 55.87 43.3372 56.9469 43.9093 57.1825Z" fill="#FEFEFE"/>
<path d="M55.8549 52.5383C54.8453 53.6488 52.8935 55.6343 52.7926 55.7016L52.6916 55.8362L46.466 55.7352C46.466 56.3746 46.3651 56.9131 46.2641 57.3169C46.2641 57.3842 46.2305 57.4515 46.2305 57.5188L53.6339 58.8985C54.4079 58.3601 56.5279 56.7448 57.3356 56.1391C56.7298 55.2305 56.6962 54.1873 56.8308 53.4133C56.3933 53.1441 56.0904 52.8412 55.8549 52.5383Z" fill="#FEFEFE"/>
<path d="M56.6979 44.866C55.2509 46.313 53.9048 46.8514 52.6597 46.986C52.4242 47.0197 52.2223 47.0197 51.9867 47.0197H51.953C51.7175 47.0197 51.4819 47.0197 51.28 46.986C51.0781 46.9524 50.8425 46.9187 50.607 46.8851C50.5397 47.2216 50.4387 47.8946 50.7079 48.5677C50.9771 49.1734 51.4819 49.6109 52.2559 49.8801L52.5588 49.9474V50.2503C52.5588 50.3512 52.6261 52.2021 54.5779 52.7068C54.9144 52.3703 55.1836 52.0674 55.4192 51.7982C55.0154 50.8223 55.2173 49.8128 55.823 49.3417C55.7893 49.4426 55.5538 51.8992 57.4383 52.8078L57.7411 52.976L57.6402 53.3126C57.6065 53.4135 56.9672 55.7691 59.2891 56.6441L59.693 56.8124L59.5247 57.2162C59.491 57.3171 58.5824 59.4372 60.7025 60.6823H65.3128V56.9133C63.6639 56.7114 62.9908 55.3653 62.7889 54.3894C62.0149 54.2548 61.4428 53.9183 61.039 53.3799C60.0631 52.0675 60.9044 50.856 60.9044 50.7887C60.9044 50.7887 60.9044 52.0675 61.6784 52.8751C62.0486 53.2453 62.5197 53.5481 63.1927 53.6154L63.5293 53.6491L63.5629 53.9856C63.5629 54.0529 63.7648 55.8028 65.3128 56.072V48.3658C65.3128 47.1879 65.6493 45.9765 66.0531 44.866H56.6979Z" fill="#FEFEFE"/>
<path d="M44.2806 48.3658L44.1797 53.279L44.7181 53.3463L46.0305 48.6687L45.3575 47.2217L44.2806 48.3658Z" fill="#FEFEFE"/>
<path d="M47.1738 66.5039C47.0055 66.5039 46.9046 66.3693 46.9046 66.201C46.9046 66.0328 47.0392 65.9318 47.2075 65.9318C47.3757 65.9318 47.4767 66.0664 47.4767 66.2347C47.443 66.4029 47.3084 66.5376 47.1738 66.5039ZM58.8846 70.845C58.9183 70.845 58.9856 70.845 59.0192 70.8786C59.8269 71.1142 60.0624 74.1765 61.5095 74.4457C61.6441 74.4794 61.7787 74.4794 61.9133 74.4794C62.3171 74.4794 62.5863 74.3111 62.8555 73.9746C62.8555 73.9746 62.1152 72.7968 61.5768 72.0228C60.8701 70.9796 60.298 69.7345 58.9519 69.7345C58.9183 69.7345 58.8846 69.7345 58.851 69.7345C58.4135 69.7681 58.1443 69.97 58.1443 69.97C57.6059 69.6335 57.1011 69.4989 56.63 69.4989C55.7887 69.4989 55.1493 69.9027 54.8128 69.9027L51.8178 69.5999C51.3466 69.5662 50.9765 69.0614 50.8418 68.8932C50.8082 68.8259 50.7745 68.8259 50.7745 68.8259C50.7745 68.7586 50.7745 68.6576 50.7745 68.5903C50.6736 66.0664 48.7554 64.9896 48.0824 64.9559C48.0824 64.9559 48.1497 64.4848 47.9814 64.2829L47.3084 65.1242L45.121 64.0137L46.669 65.8645L45.3566 67.3789C45.1884 67.5471 45.222 67.7827 45.2893 67.8836L45.8277 68.3548L46.5344 67.9173C46.5681 67.8836 46.6354 67.8836 46.7027 67.8836C46.9046 67.8836 47.2075 67.9509 47.4767 67.9509C47.7795 67.9509 48.0151 67.8836 48.0488 67.6144C47.9478 68.5567 47.1065 70.1719 47.6786 71.4507L48.0824 72.4266L45.4239 72.0228L44.1788 74.1765C43.8086 74.8832 43.7413 75.6572 44.1115 76.0947L44.5826 76.7004C44.5826 76.7004 45.222 75.9937 45.3903 75.5226L45.1883 75.287C45.0201 75.0851 45.0201 74.9169 45.121 74.6813L45.895 73.3352L49.0247 74.1092L49.1929 73.7727C49.3948 73.4025 49.6977 73.3016 50.0342 73.3016C50.1688 73.3016 50.3034 73.3016 50.4717 73.3352C51.0438 73.4698 52.0197 73.6044 52.9619 73.6044C54.0051 73.6044 55.0483 73.4025 55.6204 72.7631C56.7646 74.4794 59.0529 74.7822 58.8846 75.6572L58.2789 78.6186C58.6827 78.5849 59.0529 78.5849 59.4231 78.5176L59.9951 75.4216C60.0624 75.0851 60.1297 74.6476 60.1297 74.6476C59.8942 74.4121 59.3558 73.941 59.0529 73.3352C58.6491 72.5276 58.851 72.1238 58.4808 71.0806C58.5145 71.0806 58.6154 70.845 58.8846 70.845Z" fill="#FEFEFE"/>
<path d="M42.9019 73.6721C42.9019 73.6721 43.9452 73.2346 44.0461 72.9317L43.9115 72.5616C43.8105 72.326 43.8105 72.0904 44.0125 71.9558L45.123 71.1482L47.0075 71.5184C47.0075 71.5184 46.6709 71.0809 46.7046 70.5088L44.9211 70.105L43.2385 71.1482C42.4981 71.7203 42.4645 72.6289 42.7 73.1673L42.9019 73.6721Z" fill="#FEFEFE"/>
<path d="M56.123 78.6863C56.4596 78.6863 56.8297 78.6526 57.2336 78.6526C57.2336 78.6526 58.2095 75.7585 58.2431 75.6576C57.7047 75.422 56.5942 74.8163 56.1567 74.5134C56.4596 74.9509 57.1326 75.4557 56.998 75.8595L56.123 78.6863Z" fill="#FEFEFE"/>
<path d="M65.3124 61.49H38.6602V71.7874C38.6602 75.9939 41.6215 78.6524 45.9962 78.6524C49.6643 78.6524 50.6065 78.787 51.9863 80.2004C52.9285 79.2245 53.7025 78.888 55.2841 78.7534L55.3178 78.5851L56.1591 75.9266C56.1254 75.8593 54.7457 74.2777 54.7457 74.2777C54.2073 74.4796 53.7362 74.4796 52.9622 74.4796C52.1882 74.4796 51.2796 74.3786 50.3037 74.2104C50.2027 74.1767 50.1018 74.1767 50.0345 74.1767C49.8999 74.1767 49.8999 74.1767 49.8662 74.244L49.6979 74.5132L49.3951 75.018L48.823 74.8834L46.2655 74.2777L45.9289 74.8834L45.9962 74.9507L46.2991 75.2872L46.1645 75.7583C45.9626 76.3641 45.3569 77.0708 45.1886 77.239L44.5492 77.9457L43.9771 77.2054L43.5397 76.6333C43.0685 76.0949 42.9676 75.2872 43.2368 74.4459C43.2368 74.4459 43.2368 74.4459 43.2031 74.4459L42.4628 74.7488L42.1263 74.0085L41.8907 73.5037C41.4869 72.5951 41.6552 71.2827 42.6984 70.475L44.7511 69.2636L46.7029 69.6674C46.7366 69.4655 46.8039 68.7924 46.8712 68.5905C46.8375 68.5905 46.8039 68.5905 46.7702 68.5905L45.6261 69.028L44.5492 68.254C44.5492 68.254 44.1117 67.8165 44.5156 67.4127L45.5588 65.7638L42.9003 62.2976L47.0058 64.0475L47.275 63.711L47.8134 63.038L48.4528 63.6437C48.6211 63.812 48.722 64.0475 48.7893 64.2494C49.9335 64.6869 51.9526 66.033 52.1209 68.2203L51.4815 68.4896C51.6161 68.6578 51.7507 68.7251 51.7844 68.7588L54.7121 69.0616C54.7794 69.0616 54.8803 69.028 54.9813 68.9943C55.3514 68.8597 55.8899 68.6915 56.5293 68.6915C57.0677 68.6915 57.5725 68.8261 58.0436 69.0616C58.2118 68.9943 58.4474 68.927 58.7166 68.927H58.8512C60.4329 68.927 61.2069 70.1385 61.8126 71.0808C61.9135 71.249 62.0145 71.4173 62.1155 71.5519C62.6539 72.3595 63.3942 73.5037 63.3942 73.571L63.7307 74.0758L63.3269 74.5469C63.0241 74.9171 62.5529 75.3209 61.7789 75.3209C61.6107 75.3209 61.4424 75.2872 61.2405 75.2536C61.0722 75.2199 60.9376 75.1863 60.7694 75.119C60.7357 75.2872 60.7021 75.4555 60.7021 75.6237L60.2983 78.3832C63.3606 77.6092 65.3124 75.2199 65.3124 71.7874V61.49Z" fill="#FCEC3A"/>
<path d="M38.6592 60.6486H59.3887C58.3455 59.5381 58.3792 58.1584 58.6484 57.2498C58.3455 57.1152 58.1099 56.9133 57.8744 56.7114C57.0667 57.3171 54.5765 59.1679 53.9371 59.6391L53.8025 59.74L45.6588 58.2257H45.4905C45.2886 58.2257 45.0194 58.2257 44.6829 58.192C44.5819 58.5622 44.2791 58.8314 43.9089 58.8314C43.8752 58.8314 43.8079 58.8314 43.7743 58.8314C43.5724 58.7978 43.3705 58.6968 43.2695 58.4949C43.1349 58.3266 43.1012 58.0911 43.1349 57.8892L43.1685 57.7209C42.3272 57.1152 41.5533 55.7691 41.8898 54.3221L41.9234 54.1875L42.058 54.0865C42.0917 54.0865 42.2263 53.9856 42.4282 53.851L41.8225 53.75C41.5869 53.7163 41.4523 53.4808 41.486 53.2789C41.5196 53.0433 41.7215 52.8751 41.9571 52.9424L43.3705 53.1779L43.5051 48.0629L45.5915 45.7745L46.9039 48.6013L45.5242 53.5144L46.7693 53.7164C47.0049 53.75 47.1395 53.9519 47.1058 54.1875C47.0722 54.3894 46.9039 54.524 46.702 54.524C46.6683 54.524 46.6683 54.524 46.6347 54.524L45.6251 54.3557C45.6251 54.3894 45.6588 54.3894 45.6588 54.423C45.7597 54.6586 45.9953 54.8269 46.1299 54.8942L52.3218 54.9951C52.591 54.7259 53.2304 54.0865 53.9035 53.3798C52.3891 52.7741 51.8171 51.428 51.7161 50.5194C50.8748 50.1493 50.2691 49.5772 49.9326 48.8705C49.5287 47.9619 49.6633 47.0533 49.7979 46.6158C48.9567 46.313 48.1154 45.7409 47.2068 44.8323H37.8516C38.2554 45.9428 38.5919 47.1543 38.5919 48.3321L38.6592 60.6486Z" fill="#FCEC3A"/>
<path d="M47.2091 65.9656C47.0409 65.9656 46.9399 66.0665 46.9062 66.2348C46.9062 66.403 47.0072 66.5377 47.1755 66.5377C47.3101 66.5377 47.4447 66.4367 47.4783 66.2684C47.4783 66.1002 47.3437 65.9656 47.2091 65.9656Z" fill="#252422"/>
<path d="M59.5574 87.57L58.3459 84.1375C59.7929 83.7 62.2832 82.7241 63.3937 82.0511L62.6533 84.575L65.1772 85.4499C63.6292 86.2239 61.7784 86.9642 59.5574 87.57ZM51.9857 90.6659C49.058 90.6659 45.6928 89.9592 44.7169 89.6227L46.2313 85.4499C47.4764 85.8201 50.0676 86.2239 51.9521 86.1902H52.0867C53.9712 86.1902 56.5624 85.8201 57.8075 85.4499L59.2882 89.6227C58.2786 89.9929 54.9134 90.6659 51.9857 90.6659ZM38.7942 85.4162L41.3181 84.5413L40.5778 82.0511C41.6883 82.6905 44.1785 83.6664 45.6255 84.1375L44.4141 87.57C42.193 86.9642 40.3422 86.2239 38.7942 85.4162ZM65.2782 84.6759L63.7302 84.0702L64.1677 82.4212L64.6388 80.6377C64.6388 80.6377 61.913 82.152 58.0767 83.2962C56.9998 83.6327 56.1585 83.7673 56.1585 83.7673V84.9788C56.1585 84.9788 54.1058 85.3489 52.0194 85.3489H51.8848C49.7983 85.3489 47.7792 84.9788 47.7792 84.9788V83.7673C47.7792 83.7673 46.9379 83.6327 45.8611 83.2962C42.0248 82.152 39.299 80.6377 39.299 80.6377L39.7701 82.4212L40.2076 84.0702L38.6596 84.6759L36.9434 85.3153C38.8952 86.2912 41.621 87.7046 44.1112 88.4113L43.5391 90.0602C43.5391 90.0602 46.7024 91.5409 51.9184 91.5409H51.9857C57.2354 91.5409 60.3987 90.0602 60.3987 90.0602L59.8266 88.4113C62.3168 87.7046 65.0426 86.2912 66.9608 85.3153L65.2782 84.6759Z" fill="#252422"/>
<path d="M45.5909 18.2809L46.2976 18.3482L46.6005 17.7088L47.4754 15.7907L49.0907 16.6656L49.7301 17.0022L50.2348 16.4974L51.9847 14.7138L53.7346 16.4974L54.2394 17.0022L54.8788 16.6656L56.4941 15.7907L57.369 17.7088L57.6719 18.3482L58.3786 18.2809L59.0516 18.2136C58.7488 18.9203 58.5132 19.5933 58.3449 20.1654C56.595 19.1559 54.3067 18.5838 51.9511 18.5838C49.6291 18.5838 47.3408 19.1559 45.5572 20.1654C45.389 19.5933 45.1871 18.9203 44.8506 18.2136C44.9179 18.18 45.5909 18.2809 45.5909 18.2809ZM51.9847 19.5597C55.1144 19.5597 57.6046 20.6365 58.9843 21.7471C58.9843 21.7471 59.3881 19.1895 60.8015 16.9685L58.2776 17.2714L56.9652 14.3773L54.4413 15.7234L51.9847 13.2332L49.5282 15.7234L47.0043 14.3773L45.6919 17.2714L43.168 16.9685C44.5813 19.2232 44.9852 21.7471 44.9852 21.7471C46.3649 20.6029 48.8551 19.5597 51.9847 19.5597Z" fill="#252422"/>
<path d="M91.5921 62.2974C91.5921 62.2974 90.5153 64.2492 87.9914 64.2492H87.9578C84.9627 64.2156 83.7513 62.3647 83.7513 62.3647C83.7513 62.3647 83.9195 64.8213 82.8427 68.1192C81.5303 72.0901 82.8427 74.9505 82.8427 74.9505C82.8427 74.9505 82.136 75.1524 81.3283 75.1524C81.0255 75.1524 80.689 75.1188 80.3861 75.0514C77.8959 74.4457 77.2565 72.0901 77.2565 72.0901C77.2565 72.0901 77.492 79.9983 68.507 79.9983H68.4397C68.4397 79.9983 69.2474 78.8878 69.4493 75.7245C69.8867 69.8354 73.7567 69.0278 73.7567 69.0278C73.7567 69.0278 71.7039 68.7586 70.7953 67.9509C69.382 66.6385 69.4829 65.1242 69.4829 65.1242C72.6462 65.0905 74.6989 63.98 76.2806 62.0955C77.9968 60.0764 78.266 57.889 78.266 57.889C78.266 57.889 76.5834 59.4707 73.2856 59.4707C72.9827 59.4707 72.6798 59.4707 72.377 59.437C70.829 59.3024 69.7521 58.2929 69.7521 58.2929C73.1846 56.0382 75.5739 52.1009 73.4538 46.1782C71.7376 41.4333 67.6657 37.8999 63.5266 35.2077C62.1468 34.3328 61.4065 33.3569 61.4065 32.5156C61.4065 30.5301 64.1659 30.4628 65.2764 29.1504C66.5889 27.6024 65.7476 25.0785 64.6371 23.5642C64.6371 23.5642 65.0072 23.4969 65.613 23.4969C66.7908 23.4969 68.8435 23.7998 70.5261 25.617C72.7808 28.0062 71.8385 30.5974 71.8385 30.5974L72.4443 30.732C72.8144 30.7993 73.151 30.833 73.5211 30.833C73.5884 30.833 73.6894 30.833 73.7567 30.833C77.0209 30.833 78.4679 27.3332 78.4679 27.3332C78.4679 27.3332 81.9341 31.7079 76.819 35.1404C75.9441 35.7125 75.5402 36.2846 75.6412 36.8567L75.7085 37.2268L76.0787 37.2941C79.7804 38.3373 81.6312 40.9285 83.9195 43.9235C87.3857 48.4665 92.2988 48.6011 92.9046 48.6011H92.9719C92.9719 48.6011 91.8614 52.2355 88.5635 52.2355C88.4962 52.2355 88.4625 52.2355 88.3952 52.2355C86.9818 52.1009 86.2079 51.4952 86.2079 51.4952C86.2079 51.4952 85.6021 59.7399 91.5921 62.2974ZM88.6308 53.2451C92.669 53.2451 94.0151 49.005 94.0824 48.8367L94.5199 47.356L93.0055 47.3897C92.4671 47.3897 88.0251 47.2551 84.8618 43.1495L84.5589 42.7794C82.5062 40.0872 80.5207 37.496 77.0209 36.3182C77.1219 36.2173 77.2565 36.1163 77.4584 35.9817C79.3092 34.7366 80.3861 33.1886 80.6553 31.4387C81.0591 28.7802 79.4102 26.6602 79.3092 26.5592L78.1987 25.1122L77.492 26.7948C77.4584 26.8957 76.2469 29.6215 73.7903 29.6215H73.5884C73.4202 29.6215 73.2519 29.6215 73.0837 29.5879C73.1846 28.3764 72.9491 26.4919 71.3001 24.742C69.3147 22.622 66.8581 22.3191 65.613 22.3191C64.9399 22.3191 64.4688 22.42 64.4352 22.42L62.7526 22.7566L63.7958 24.1699C64.6034 25.2805 65.3774 27.2996 64.4688 28.3428C64.1996 28.6793 63.5939 28.9485 63.0554 29.2177C61.9113 29.7561 60.3633 30.5301 60.3633 32.4483C60.3633 33.6934 61.3055 35.0058 62.9881 36.0827C68.0359 39.3469 71.1319 42.7457 72.4779 46.4811C74.5643 52.2355 71.8385 55.5334 69.2137 57.2833L68.0359 58.0573L69.0791 59.0332C69.2137 59.1678 70.4925 60.312 72.3433 60.4802C72.6798 60.5139 73.05 60.5139 73.3529 60.5139C74.5307 60.5139 75.5739 60.312 76.3815 60.0764C76.146 60.4802 75.8768 60.9177 75.5066 61.3215C73.9923 63.1051 72.1414 63.9127 69.4829 63.98H68.507L68.4397 64.9896C68.4397 65.1915 68.3724 67.076 70.0886 68.6913C70.3579 68.9268 70.6607 69.1287 70.9972 69.297C69.8194 70.3739 68.608 72.292 68.3724 75.5562C68.1705 78.282 67.5311 79.2916 67.5311 79.2916L66.4543 81.0078L68.4397 81.0415C71.7039 81.0415 74.1942 80.1329 75.9104 78.282C76.92 77.2052 77.5257 75.96 77.8622 74.8832C78.4343 75.388 79.1746 75.8254 80.1169 76.061C80.4871 76.162 80.8909 76.1956 81.2947 76.1956C82.2033 76.1956 82.9773 75.9937 83.0782 75.96L84.3234 75.6235L83.7513 74.4121C83.7176 74.3111 82.6744 71.8882 83.7849 68.422C84.2561 66.9077 84.5253 65.5953 84.6262 64.5521C85.4339 64.9896 86.4771 65.3261 87.8568 65.3261C90.9864 65.3261 92.3661 62.9368 92.3998 62.8358L93.0055 61.7253L91.8614 61.2542C88.1597 59.6726 87.3184 55.3988 87.1501 53.1105C87.4866 53.1778 87.8568 53.2451 88.2943 53.2451H88.6308Z" fill="#252422"/>
<path d="M84.1211 35.1742C84.8615 35.1742 85.7364 35.4434 86.5777 36.3183C89.1689 39.0441 91.5918 39.1787 91.5918 39.1787C91.1544 40.1883 89.8756 41.0633 88.5632 41.0633C88.2603 41.0633 87.9574 41.0296 87.6546 40.895C85.871 40.2893 85.2317 37.4962 82.0684 35.7799C82.0684 35.8136 82.9433 35.1742 84.1211 35.1742ZM81.53 36.7895C83.0443 37.6308 83.9192 38.7076 84.6932 39.7172C85.4336 40.6594 86.1739 41.6017 87.2844 41.9718C87.6882 42.1065 88.0921 42.1738 88.5295 42.1738C90.2121 42.1738 91.8947 41.0969 92.5677 39.6499L93.2071 38.1692L91.6591 38.0682C91.5918 38.0682 89.5727 37.8663 87.3517 35.5107C86.4431 34.5348 85.3326 34.03 84.1211 34.03C82.6405 34.03 81.5636 34.7704 81.4627 34.8713L80.0156 35.9145L81.53 36.7895Z" fill="#252422"/>
<path d="M82.2371 51.4614V51.5287C81.3285 43.9907 76.0115 38.5727 70.0888 35.2412C69.5504 34.9383 69.0456 34.6691 68.5408 34.4336C70.3243 34.7364 73.2521 34.7701 75.4731 32.751C75.4731 32.751 72.0406 35.3422 65.041 32.9865C66.9928 34.299 70.7618 36.1162 74.1943 39.0775C82.8092 46.8511 76.6509 54.4564 76.6509 54.4564C79.7469 51.1249 79.8815 47.5914 78.9729 44.6637C80.5881 47.4568 81.6314 50.8556 81.4967 55.0285C81.2612 61.0185 78.0643 66.2009 74.6991 70.34C73.0838 72.3591 72.7473 74.8494 72.7473 74.8494C72.7473 74.8494 73.3867 72.662 75.2712 70.4073C78.8719 66.0663 81.9679 61.5569 82.3717 55.0621C82.7419 56.2399 84.2898 59.5042 86.7128 60.7493C86.6791 60.7493 83.6168 58.8648 82.2371 51.4614Z" fill="#252422"/>
<path d="M35.3941 79.9646C26.4091 79.9646 26.6447 72.0565 26.6447 72.0565C26.6447 72.0565 26.0053 74.4121 23.5151 75.0178C23.2122 75.0851 22.9093 75.1188 22.5728 75.1188C21.7652 75.1188 21.0585 74.9169 21.0585 74.9169C21.0585 74.9169 22.3709 72.0901 21.0585 68.0856C19.9816 64.7877 20.1499 62.3311 20.1499 62.3311C20.1499 62.3311 18.9384 64.2156 15.9434 64.2156H15.9771C13.4868 64.2156 12.3763 62.2638 12.3763 62.2638C18.3663 59.7063 17.7606 51.4616 17.7606 51.4616C17.7606 51.4616 16.9866 52.0673 15.4723 52.101C15.405 52.101 15.3713 52.101 15.304 52.101C12.0061 52.101 10.8956 48.4666 10.8956 48.4666H10.9629C11.5687 48.4666 16.4818 48.332 19.948 43.789C22.2363 40.794 24.0871 38.2028 27.7888 37.1596L28.159 37.0923L28.2263 36.7221C28.3273 36.15 27.9571 35.6116 27.0822 35.0059C22.0007 31.5734 25.4332 27.1986 25.4332 27.1986C25.4332 27.1986 26.8802 30.6984 30.1445 30.6984C30.2118 30.6984 30.3127 30.6984 30.38 30.6984C30.7502 30.6648 31.1204 30.6648 31.4569 30.5975L32.0626 30.4629C32.0626 30.4629 31.1204 27.8717 33.375 25.4824C35.0576 23.6989 37.1104 23.3623 38.2882 23.3623C38.8939 23.3623 39.2641 23.4296 39.2641 23.4296C38.1536 24.944 37.3123 27.4679 38.6247 29.0158C39.7352 30.3619 42.4947 30.3956 42.4947 32.381C42.4947 33.2223 41.7207 34.1982 40.3746 35.0732C36.2354 37.7317 32.1636 41.2987 30.4473 46.0436C28.3273 51.9664 30.7165 55.9036 34.149 58.1583C34.149 58.1583 33.0722 59.1678 31.5242 59.3025C31.2213 59.3361 30.8848 59.3361 30.6156 59.3361C27.3514 59.3361 25.6351 57.7545 25.6351 57.7545C25.6351 57.7545 25.9043 59.9418 27.6206 61.9609C29.2022 63.8454 31.2886 64.956 34.4182 64.9896C34.4182 64.9896 34.5192 66.5039 33.1395 67.8164C32.2309 68.624 30.1781 68.8932 30.1781 68.8932C30.1781 68.8932 34.0481 69.7009 34.4855 75.5899C34.7211 78.7868 35.4951 79.8637 35.4951 79.8637L35.3941 79.9646ZM36.37 79.3253C36.37 79.3253 35.7307 78.3157 35.5287 75.5899C35.2932 72.3257 34.0817 70.4412 32.9039 69.3307C33.2404 69.1624 33.5769 68.9605 33.8125 68.725C35.5624 67.1097 35.4614 65.2252 35.4614 65.0233L35.3941 64.0137H34.3846C31.7261 63.9801 29.8752 63.1388 28.3946 61.3552C28.0581 60.9177 27.7552 60.5139 27.5196 60.1101C28.3609 60.3793 29.3705 60.5476 30.5483 60.5476C30.8848 60.5476 31.1877 60.5139 31.5578 60.5139C33.4087 60.3457 34.6875 59.2015 34.8221 59.0669L35.8653 58.091L34.6875 57.317C32.0626 55.5671 29.3705 52.3029 31.4232 46.5148C32.7693 42.7794 35.8653 39.3806 40.913 36.1164C42.6293 35.0059 43.5379 33.6934 43.5379 32.482C43.5379 30.5638 41.9899 29.7898 40.8457 29.2514C40.2737 28.9822 39.7016 28.713 39.4324 28.3765C38.5574 27.3332 39.2977 25.3141 40.1054 24.2036L41.1486 22.7903L39.4324 22.4537C39.3987 22.4537 38.9276 22.3528 38.2545 22.3528C36.9758 22.3528 34.5528 22.6557 32.5674 24.7757C30.9185 26.5256 30.6829 28.4101 30.7838 29.6216C30.6156 29.6216 30.4473 29.6552 30.2791 29.6552H30.1108C27.6206 29.6552 26.4428 26.9294 26.3755 26.8285L25.6688 25.1459L24.5246 26.5929C24.4573 26.6939 22.8084 28.8139 23.2122 31.4724C23.4814 33.256 24.5583 34.7703 26.4091 36.0154C26.611 36.15 26.7456 36.251 26.8466 36.3519C23.3468 37.5297 21.395 40.0873 19.3086 42.8131L19.0057 43.1832C15.8425 47.3224 11.3668 47.4234 10.862 47.4234L9.34766 47.3897L9.81878 48.8704C9.88609 49.0387 11.2322 53.2788 15.2704 53.2788H15.4723C15.9098 53.2788 16.2799 53.2115 16.6164 53.1442C16.4482 55.4661 15.6405 59.7063 11.9052 61.2879L10.8283 61.759L11.4341 62.8695C11.5014 62.9705 12.8811 65.3598 16.0107 65.3598C17.3904 65.3598 18.4336 64.9896 19.2413 64.5858C19.3759 65.629 19.6115 66.9751 20.0826 68.4557C21.2267 71.9219 20.1499 74.3448 20.1162 74.4458L19.5441 75.6572L20.8229 75.9937C20.8902 76.0274 21.6979 76.2293 22.6065 76.2293C23.0439 76.2293 23.4478 76.1957 23.7843 76.0947C24.7265 75.8591 25.4669 75.4217 26.0389 74.9169C26.3755 75.9937 26.9812 77.2389 27.9907 78.3157C29.7406 80.1329 32.2309 81.0752 35.4614 81.0752L37.4469 81.0415L36.37 79.3253Z" fill="#252422"/>
<path d="M17.3892 36.3181C18.2305 35.4432 19.1054 35.174 19.8457 35.174C21.0236 35.174 21.8985 35.8134 21.8985 35.8134C18.7689 37.5296 18.0959 40.2891 16.3123 40.9284C16.0094 41.0294 15.7066 41.0967 15.4037 41.0967C14.0913 41.0967 12.8125 40.2218 12.3751 39.2122C12.3751 39.1785 14.798 39.0439 17.3892 36.3181ZM15.4037 42.1736C15.8412 42.1736 16.245 42.1063 16.6488 41.9716C17.793 41.6015 18.4997 40.6592 19.24 39.717C20.014 38.7411 20.889 37.6306 22.4033 36.7893L23.9513 35.948L22.5042 34.9048C22.3696 34.8375 21.2928 34.0635 19.8457 34.0635C18.6343 34.0635 17.5238 34.5683 16.6152 35.5442C14.3605 37.8998 12.3751 38.068 12.3077 38.1017L10.7598 38.2026L11.3991 39.6833C12.0385 41.0967 13.7211 42.1736 15.4037 42.1736Z" fill="#252422"/>
<path d="M22.4719 55.0285C22.3036 50.8556 23.3468 47.4568 24.9621 44.6637C24.0535 47.5578 24.1881 51.1249 27.2841 54.4564C27.2841 54.4564 21.1258 46.8511 29.7407 39.0775C33.1732 36.1162 36.9422 34.299 38.894 32.9865C31.8944 35.3422 28.4619 32.751 28.4619 32.751C30.7166 34.7364 33.6106 34.7028 35.3942 34.4336C34.923 34.6691 34.3846 34.9383 33.8462 35.2412C27.9235 38.5391 22.6065 43.9907 21.6979 51.5287V51.4614C20.3182 58.8648 17.2559 60.7493 17.2559 60.7493C19.6788 59.5042 21.2268 56.2399 21.5969 55.0621C22.0008 61.5569 25.0967 66.0663 28.6975 70.4073C30.582 72.662 31.2214 74.8494 31.2214 74.8494C31.2214 74.8494 30.8512 72.3591 29.2359 70.34C25.9044 66.2009 22.7074 61.0185 22.4719 55.0285Z" fill="#252422"/>
<path d="M49.9688 39.8184V41.299C50.4735 40.6597 51.4494 40.7943 51.4494 40.7943V42.948C51.4494 42.948 51.4158 43.9912 51.0456 44.4623H53.132C52.7619 43.9912 52.7282 42.948 52.7282 42.948V40.7943C52.7282 40.7943 53.7041 40.6597 54.2089 41.299V39.8184H49.9688Z" fill="#252422"/>
<path d="M49.0578 30.9677C49.7308 31.5061 50.101 31.6071 50.1346 31.6071L50.4039 31.7417V30.3283L47.9473 29.2515C47.9473 29.2515 47.9473 30.0591 49.0578 30.9677Z" fill="#252422"/>
<path d="M54.912 30.9677C56.0225 30.0928 56.0562 29.2852 56.0562 29.2852L53.5996 30.362V31.7754L53.8688 31.6408C53.8688 31.6071 54.239 31.5062 54.912 30.9677Z" fill="#252422"/>
<path d="M51.9867 27.1982L46.064 24.7753C46.5687 23.5302 48.8907 22.487 51.9867 22.487C55.0827 22.487 57.4046 23.5302 57.9094 24.7753L51.9867 27.1982ZM56.3951 34.7362L52.4242 36.8899V28.1405L57.8421 26.256L56.3951 34.7362ZM58.8853 37.0582L60.7025 38.1351H60.7362L61.2073 38.4043C60.1641 38.7071 59.3901 39.2119 58.717 39.9186C58.6834 39.9523 58.6834 39.9523 58.6497 39.9859C58.5151 40.1542 58.3469 40.3224 58.2123 40.5243C58.1786 40.558 58.145 40.5916 58.1113 40.6253C57.9767 40.8272 57.8421 40.9955 57.7075 41.1974C57.6738 41.231 57.6738 41.2647 57.6402 41.2983C57.5056 41.5339 57.3373 41.7695 57.2027 42.0387C55.8903 44.327 53.8375 45.7067 51.9867 45.7067C50.1358 45.7067 48.0831 44.327 46.7707 42.0387C46.6361 41.8031 46.5014 41.5339 46.3332 41.2983C46.2995 41.2647 46.2659 41.1974 46.2322 41.1637C46.0976 40.9618 45.963 40.7936 45.8621 40.6253C45.8284 40.5916 45.7948 40.5243 45.7611 40.4907C45.6265 40.3224 45.4919 40.1205 45.3236 39.9859C45.29 39.9523 45.2563 39.9186 45.2563 39.9186C44.5833 39.2119 43.8093 38.7071 42.7661 38.4043L43.2372 38.1351H43.2709L45.0881 37.0582L46.9726 35.9477L51.9867 38.7408L57.0008 35.9477L58.8853 37.0582ZM66.0531 44.8654C65.6493 45.9759 65.3128 47.1537 65.3128 48.3652V56.0715C63.7648 55.8023 63.5629 54.086 63.5629 53.9851L63.5293 53.6485L63.1927 53.6149C62.5197 53.5476 62.0486 53.2447 61.6784 52.8745C60.9044 52.1006 60.9044 50.8218 60.9044 50.7881C60.9044 50.8554 60.0631 52.0669 61.039 53.3793C61.4428 53.9178 62.0486 54.2543 62.7889 54.3889C62.9572 55.3648 63.6639 56.7108 65.3128 56.9128V60.6818H60.7025C58.5824 59.4703 59.491 57.3166 59.5247 57.2156L59.693 56.8118L59.2891 56.6435C57.0008 55.7686 57.6065 53.413 57.6402 53.312L57.7411 52.9755L57.4383 52.8072C55.5538 51.8986 55.7893 49.4757 55.823 49.3411C55.2509 49.8459 55.0154 50.8218 55.4192 51.7977C55.2173 52.0669 54.9144 52.3698 54.5779 52.7063C52.5924 52.2015 52.5588 50.317 52.5588 50.2497V49.9468L52.2896 49.8459C51.5156 49.543 50.9771 49.1055 50.7416 48.5335C50.4387 47.8941 50.5397 47.1874 50.6406 46.8509C50.8762 46.9182 51.0781 46.9518 51.3136 46.9518C51.5492 46.9855 51.7511 46.9855 51.9867 46.9855H52.0203C52.2559 46.9855 52.4578 46.9855 52.6934 46.9518C53.9048 46.8172 55.2846 46.2788 56.7316 44.8318L66.0531 44.8654ZM60.2987 78.3826L60.8035 75.6232C60.8371 75.4549 60.8708 75.2866 60.8708 75.1184C61.0054 75.1857 61.1736 75.2193 61.3419 75.253C61.5438 75.2866 61.7121 75.3203 61.8803 75.3203C62.6543 75.3203 63.1254 74.8828 63.4283 74.5463L63.8321 74.0752L63.4956 73.5704C63.4619 73.5031 62.7553 72.3589 62.2168 71.5513C62.1159 71.383 62.0149 71.2484 61.914 71.0802C61.2746 70.1043 60.5006 68.9264 58.9526 68.9264H58.818C58.5488 68.9264 58.3469 68.9938 58.145 69.0611C57.6402 68.8255 57.1354 68.6909 56.6306 68.6909C55.9912 68.6909 55.4528 68.8591 55.0827 68.9938C54.9817 69.0274 54.8807 69.0611 54.8134 69.0611L51.8857 68.7582C51.8521 68.7582 51.7175 68.6909 51.5829 68.489L52.2222 68.2198C52.054 66.0324 50.0012 64.72 48.8907 64.2489C48.8571 64.0469 48.7561 63.8114 48.5542 63.6431L47.9148 63.0374L47.3764 63.7104L47.1072 64.0469L43.0017 62.2971L45.6602 65.7632L44.6169 67.4121C44.2468 67.8496 44.6506 68.2534 44.6506 68.2534L45.7275 69.0274L46.8716 68.5899C46.9053 68.5899 46.9389 68.5899 46.9726 68.5899C46.9053 68.7582 46.838 69.4649 46.8043 69.6668L44.8525 69.263L42.7997 70.4744C41.7565 71.2821 41.5883 72.5945 41.9921 73.5031L42.2277 74.0079L42.5642 74.7482L43.2709 74.4453H43.3045C43.0353 75.2866 43.1363 76.0943 43.6074 76.6327L44.0449 77.2048L44.6169 77.9451L45.2563 77.2384C45.4582 77.0365 46.064 76.3298 46.2322 75.7578L46.3668 75.2866L46.064 74.9501L45.9967 74.8828L46.3332 74.2771L48.8907 74.8828L49.4628 75.0174L49.7657 74.5126L49.9339 74.2434C49.9676 74.1761 49.9676 74.1761 50.1022 74.1761C50.2031 74.1761 50.2704 74.1761 50.3714 74.2098C51.3473 74.4117 52.2222 74.479 53.0299 74.479C53.8039 74.479 54.2414 74.4453 54.8134 74.2771C54.8134 74.2771 56.1932 75.8924 56.2268 75.926L55.3855 78.5845L55.3519 78.7528C53.7702 78.8874 52.9962 79.2576 52.054 80.1998C50.7079 78.8201 49.732 78.6518 46.064 78.6518C41.6892 78.6518 38.7279 76.027 38.7279 71.7869V61.4894H65.3801V71.7869C65.3128 75.2193 63.361 77.6086 60.2987 78.3826ZM43.8766 72.5608L44.0112 72.931C43.9103 73.2339 42.8671 73.6714 42.8671 73.6714L42.6315 73.1666C42.3959 72.6281 42.4296 71.7195 43.1699 71.1475L44.8525 70.1043L46.6361 70.5081C46.6024 71.0802 46.9389 71.5176 46.9389 71.5176L45.0544 71.1475L43.9439 71.9551C43.7757 72.0561 43.7757 72.3253 43.8766 72.5608ZM59.9958 75.4549L59.4237 78.5509C59.0536 78.6182 58.6834 78.6182 58.2796 78.6518L58.8853 75.6905C59.0536 74.8155 56.7652 74.5463 55.6211 72.7964C55.0827 73.4358 54.0058 73.6377 52.9626 73.6377C52.0203 73.6377 51.0444 73.4694 50.4724 73.3685C50.3377 73.3348 50.1695 73.3348 50.0349 73.3348C49.6984 73.3348 49.3955 73.4358 49.1936 73.806L49.0253 74.1088L45.8957 73.3348L45.1217 74.6473C45.0208 74.8492 44.9871 75.0511 45.189 75.253L45.3909 75.4885C45.2563 75.9597 44.5833 76.6664 44.5833 76.6664L44.1122 76.0606C43.742 75.6232 43.8093 74.8492 44.1795 74.1425L45.4246 71.9888L48.0831 72.3926L47.6793 71.4167C47.1408 70.1379 47.9821 68.5226 48.0494 67.5804C48.0158 67.8496 47.7802 67.9169 47.4773 67.9169C47.2081 67.9169 46.9053 67.8496 46.7034 67.8496C46.6361 67.8496 46.5687 67.8496 46.5351 67.8832L45.8284 68.3544L45.2563 67.8496C45.189 67.7486 45.1554 67.5131 45.3236 67.3448L46.6361 65.8305L45.0881 63.9796L47.2754 65.0901L47.9485 64.2489C48.1167 64.4171 48.0494 64.9219 48.0494 64.9219C48.7225 64.9219 50.6406 66.0324 50.7416 68.5563C50.7416 68.6236 50.7416 68.7245 50.7416 68.7918C50.7416 68.7918 50.7752 68.8255 50.8089 68.8591C50.9435 69.0611 51.3137 69.5322 51.7848 69.5658L54.7798 69.8687C55.1163 69.8687 55.7557 69.4649 56.597 69.4649C57.0681 69.4649 57.5729 69.5995 58.1113 69.936C58.1113 69.936 58.3805 69.7004 58.818 69.7004C58.8517 69.7004 58.8853 69.7004 58.919 69.7004C60.265 69.7004 60.8371 70.9456 61.5438 71.9888C62.0822 72.7964 62.8226 73.9406 62.8226 73.9406C62.5533 74.2771 62.3178 74.4453 61.8803 74.4453C61.7794 74.4453 61.6448 74.4453 61.4765 74.4117C60.0295 74.1425 59.8276 71.0802 58.9863 70.8446C58.9526 70.8446 58.8853 70.811 58.8517 70.811C58.5824 70.811 58.4815 71.0465 58.4815 71.0465C58.8517 72.0897 58.6497 72.4935 59.0536 73.3012C59.3564 73.9069 59.8949 74.378 60.1304 74.6136C60.1304 74.6809 60.0631 75.1184 59.9958 75.4549ZM57.2364 78.6518C56.8325 78.6518 56.4624 78.6518 56.1259 78.6855L57.0008 75.8587C57.1354 75.4549 56.4287 74.9838 56.1595 74.5126C56.597 74.7819 57.7075 75.4212 58.2459 75.6568C58.2123 75.7578 57.2364 78.6518 57.2364 78.6518ZM44.1795 53.2784L44.3141 48.3652L45.3909 47.1874L46.064 48.6344L44.7516 53.3457C44.7179 53.3457 44.1795 53.2784 44.1795 53.2784ZM44.9535 54.7927C45.1217 55.1629 45.4582 55.4321 45.6602 55.5667C45.6602 55.9369 45.6265 56.4753 45.5255 56.9464C45.4919 57.0474 45.4919 57.1483 45.4582 57.2493C45.4582 57.3166 45.4246 57.3502 45.4246 57.4175C45.0881 57.4175 44.4487 57.3839 43.9439 57.182C43.3718 56.9464 42.4969 55.8696 42.6988 54.6581C42.9344 54.4898 43.5401 54.1533 44.0785 54.1533C44.4487 54.1533 44.7516 54.3552 44.9535 54.7927ZM57.3037 56.1051C56.496 56.7445 54.376 58.3261 53.602 58.8646L46.1986 57.4848C46.2322 57.4175 46.2322 57.3502 46.2659 57.2829C46.3668 56.8791 46.4678 56.3407 46.4678 55.7013L52.6934 55.8359L52.828 55.7013C52.9289 55.6003 54.8807 53.6485 55.8903 52.538C56.1259 52.8409 56.4287 53.1438 56.8325 53.413C56.6643 54.1533 56.7316 55.1965 57.3037 56.1051ZM47.2754 44.8654C48.1504 45.774 49.0253 46.3461 49.8666 46.649C49.7657 47.0864 49.6311 47.995 50.0012 48.9036C50.3377 49.644 50.9098 50.1824 51.7848 50.5526C51.8857 51.4612 52.4242 52.8072 53.9721 53.413C53.2991 54.1197 52.6597 54.759 52.3905 55.0283L46.1986 54.9273C46.064 54.86 45.8284 54.6917 45.7275 54.4562C45.7275 54.4225 45.6938 54.4225 45.6938 54.3889L46.7034 54.5571C46.737 54.5571 46.737 54.5571 46.7707 54.5571C46.9726 54.5571 47.1408 54.4225 47.1745 54.2206C47.2081 53.9851 47.0735 53.7831 46.838 53.7495L45.5928 53.5476L46.9726 48.6344L45.6602 45.8077L43.5737 48.096L43.4391 53.2111L42.0258 52.9755C41.8238 52.9419 41.5883 53.1101 41.5546 53.312C41.521 53.5476 41.6556 53.7495 41.8911 53.7831L42.4969 53.8841C42.295 54.0187 42.1604 54.1197 42.1267 54.1197L41.9921 54.2206L41.9585 54.3552C41.6219 55.8023 42.3959 57.1483 43.2372 57.7541L43.2036 57.9223C43.1699 58.1579 43.2036 58.3598 43.3382 58.528C43.4728 58.6963 43.641 58.8309 43.843 58.8646C43.8766 58.8646 43.9439 58.8646 43.9776 58.8646C44.3477 58.8646 44.6506 58.5953 44.7516 58.2252C45.0544 58.2588 45.3573 58.2588 45.5592 58.2588H45.7275L53.8712 59.7732L54.0058 59.6722C54.6452 59.2011 57.1354 57.3502 57.9431 56.7445C58.1786 56.9464 58.4142 57.1147 58.717 57.2829C58.4478 58.1915 58.4478 59.5713 59.491 60.6818H38.7615V48.3652C38.7615 47.1874 38.425 45.9759 38.0212 44.8654H47.2754ZM46.1313 26.2896L51.5492 28.1741V36.9236L47.5783 34.7699L46.1313 26.2896ZM59.3564 25.2128C59.3564 23.0927 55.8566 21.1746 52.0203 21.1746H51.9867C48.1167 21.1746 44.6506 23.0927 44.6506 25.2128L44.7179 25.7512L46.2659 34.8372L44.7179 35.7458L40.7133 38.1351C40.7133 38.1351 39.8047 38.6062 39.4009 38.9091C37.8866 39.9859 37.5501 41.5675 38.425 42.2406C38.6269 40.9618 39.6365 39.5821 41.4873 39.5821C42.8334 39.5821 43.843 40.2888 44.6842 41.3656C44.8862 41.6349 45.0881 41.9377 45.29 42.2406C45.5255 42.6444 45.7611 42.9809 45.9967 43.3174H35.6992C36.4396 44.8991 37.1799 46.548 37.1799 48.3316V71.7869C37.1799 77.474 41.42 80.1661 45.9967 80.1661C49.5301 80.1661 50.0349 79.9979 51.9867 82.017C53.9385 79.9979 54.4096 80.1661 57.9767 80.1661C62.5534 80.1661 66.7935 77.474 66.7935 71.7869V48.3316C66.7935 46.548 67.5002 44.8654 68.2742 43.3174H57.9767C58.2123 42.9809 58.4478 42.6444 58.6834 42.2406C58.8853 41.9377 59.0872 41.6349 59.2891 41.3656C60.1304 40.2888 61.14 39.5821 62.486 39.5821C64.3369 39.5821 65.3465 40.9282 65.5484 42.2406C66.4233 41.6012 66.1204 39.9859 64.5725 38.9091C64.1686 38.6062 63.26 38.1351 63.26 38.1351L59.2555 35.7458L57.7075 34.8372L59.2555 25.7512L59.3564 25.2128Z" fill="#252422"/>
</g>
<defs>
<clipPath id="clip0_3892_2755">
<rect width="104" height="104" rx="52" fill="white"/>
</clipPath>
</defs>
</svg>
